<svg xmlns="http://www.w3.org/2000/svg" width="1182.4" height="370" viewBox="0 0 1182.4 370" font-family="system-ui, -apple-system, &quot;Segoe UI&quot;, Roboto, sans-serif" font-size="14" id="app-shell-state-1"><rect x="0" y="0" width="1182.4" height="370" fill="#ffffff" /><rect x="0.5" y="0.5" width="1181.4" height="369" fill="none" stroke="#505050" stroke-width="1.25" /><line x1="0" y1="36" x2="1182.4" y2="36" stroke="#b0b0b0" stroke-width="1" /><text x="591.2" y="23.333333333333332" text-anchor="middle" font-size="16" font-weight="600" fill="#2d2d2d">Engineering Insights — Onboarding</text><line x1="0" y1="88" x2="1182.4" y2="88" stroke="#b0b0b0" stroke-width="1" /><text x="217.60000000000002" y="61" font-weight="700" fill="#2d2d2d">◎ Engineering Insights</text><g opacity="1"><rect x="384.5" y="46.5" width="160.6" height="31" fill="#ffffff" stroke="#505050" stroke-width="1.25" rx="3" /><text x="464.8" y="66.66666666666667" text-anchor="middle" font-weight="500" fill="#2d2d2d">Acme Engineering ▾</text></g><text x="553.6" y="61" fill="#7a7f87">Acme Engineering / Connect a source</text><g opacity="1"><rect x="814.1" y="46.5" width="110.2" height="31" fill="#ffffff" stroke="#505050" stroke-width="1.25" rx="3" /><text x="869.2" y="66.66666666666667" text-anchor="middle" font-weight="500" fill="#2d2d2d">Sync events</text></g><circle cx="948.8000000000001" cy="62" r="15.5" fill="#e2e5ea" stroke="#b5b8bd" stroke-width="1" /><text x="948.8000000000001" y="66.33333333333333" text-anchor="middle" font-size="13" font-weight="600" fill="#3a3e44">U</text><rect x="16.5" y="104.5" width="239" height="192.1428571428571" fill="none" stroke="#8a8a8a" stroke-width="1" stroke-dasharray="4 3" rx="2" /><text x="28" y="131" font-weight="700" fill="#3f7cc2">Connector</text><text x="28" y="159" fill="#7a7f87">Settings — locked</text><text x="28" y="187" fill="#7a7f87">Repositories — locked</text><line x1="28" y1="206" x2="244" y2="206" stroke="#c4c4c4" stroke-width="1" /><text x="28" y="232.85714285714286" font-size="12" font-style="italic" fill="#7a7f87">Locked until a source is connected</text><line x1="28" y1="251.14285714285714" x2="244" y2="251.14285714285714" stroke="#c4c4c4" stroke-width="1" /><text x="28" y="280.1428571428571" fill="#7a7f87">Support</text><rect x="264.5" y="104.5" width="901.4000000000001" height="101.85714285714286" fill="none" stroke="#8a8a8a" stroke-width="1" stroke-dasharray="4 3" rx="2" /><text x="276" y="128.85714285714286" font-size="12" fill="#7a7f87">Data Sources</text><text x="276" y="160.42857142857142" font-weight="700" font-size="18" fill="#2d2d2d">Connect GitHub and Jira</text><text x="276" y="189.85714285714286" fill="#7a7f87">Authorize the tools we correlate. Tokens are stored encrypted at the Project level; you can override per repository later.</text><rect x="264.5" y="215.35714285714286" width="180.6" height="106.14285714285714" fill="#fafbfc" stroke="#3f7cc2" stroke-width="1" rx="4" /><text x="274" y="240.25714285714287" font-weight="600" fill="#2d2d2d">GitHub App</text><text x="274" y="267.7142857142857" font-size="12" fill="#7a7f87">PRs, reviews, file diffs</text><g opacity="1"><rect x="274.5" y="280.5" width="160.6" height="31" fill="#3a3a3a" stroke="#505050" stroke-width="1.25" rx="3" /><text x="354.8" y="300.6666666666667" text-anchor="middle" font-weight="500" fill="#ffffff">Install GitHub App</text></g><rect x="454.1" y="215.35714285714286" width="216.48571428571427" height="106.14285714285714" fill="#fafbfc" stroke="#3f7cc2" stroke-width="1" rx="4" /><text x="463.6" y="240.25714285714287" font-weight="600" fill="#2d2d2d">Jira Software</text><text x="463.6" y="267.7142857142857" font-size="12" fill="#7a7f87">Issues, transitions, assignments</text><g opacity="1"><rect x="464.1" y="280.5" width="117.4" height="31" fill="#3a3a3a" stroke="#505050" stroke-width="1.25" rx="3" /><text x="522.8000000000001" y="300.6666666666667" text-anchor="middle" font-weight="500" fill="#ffffff">Connect Jira</text></g><g transform="translate(264 330) scale(1.5)" color="#6b7078"><path d="M 3 14 L 3 5 L 5 5 L 5 3 L 11 3 L 11 5 L 13 5 L 13 14 Z" fill="none" stroke="currentColor" stroke-width="1.4" stroke-linejoin="round" /><line x1="8" y1="5" x2="8" y2="14" stroke="currentColor" stroke-width="1" /></g><text x="296" y="342.85714285714283" font-size="12" fill="#7a7f87">OAuth 2.0 / scoped tokens only. No raw credentials stored; tokens never returned to the frontend.</text></svg>