<svg xmlns="http://www.w3.org/2000/svg" width="854.4000000000001" height="412" viewBox="0 0 854.4000000000001 412" font-family="system-ui, -apple-system, &quot;Segoe UI&quot;, Roboto, sans-serif" font-size="14" id="app-shell-state-2"><rect x="0" y="0" width="854.4000000000001" height="412" fill="#ffffff" /><rect x="0.5" y="0.5" width="853.4000000000001" height="411" fill="none" stroke="#505050" stroke-width="1.25" /><line x1="0" y1="36" x2="854.4000000000001" y2="36" stroke="#b0b0b0" stroke-width="1" /><text x="427.20000000000005" y="23.333333333333332" text-anchor="middle" font-size="16" font-weight="600" fill="#2d2d2d">Engineering Insights — core-api</text><line x1="0" y1="88" x2="854.4000000000001" y2="88" stroke="#b0b0b0" stroke-width="1" /><text x="32" y="61" font-weight="700" fill="#2d2d2d">◎ Engineering Insights</text><g opacity="1"><rect x="198.9" y="46.5" width="160.6" height="31" fill="#ffffff" stroke="#505050" stroke-width="1.25" rx="3" /><text x="279.2" y="66.66666666666667" text-anchor="middle" font-weight="500" fill="#2d2d2d">Acme Engineering ▾</text></g><text x="368" y="61" fill="#7a7f87">Acme Engineering / core-api / Reports</text><g opacity="1"><rect x="642.9000000000001" y="46.5" width="139" height="31" fill="#ffffff" stroke="#505050" stroke-width="1.25" rx="3" /><text x="712.4000000000001" y="66.66666666666667" text-anchor="middle" font-weight="500" fill="#2d2d2d">Sync events (2)</text></g><circle cx="806.4000000000001" cy="62" r="15.5" fill="#e2e5ea" stroke="#b5b8bd" stroke-width="1" /><text x="806.4000000000001" y="66.33333333333333" text-anchor="middle" font-size="13" font-weight="600" fill="#3a3e44">U</text><rect x="16.5" y="104.5" width="239" height="291" fill="none" stroke="#8a8a8a" stroke-width="1" stroke-dasharray="4 3" rx="2" /><text x="28" y="131" fill="#7a7f87">Connector</text><text x="28" y="159" fill="#7a7f87">Settings</text><line x1="28" y1="178" x2="244" y2="178" stroke="#c4c4c4" stroke-width="1" /><text x="28" y="207" font-weight="700" fill="#2d2d2d">Repositories</text><text x="28" y="235" font-weight="700" fill="#3f7cc2">  core-api</text><text x="28" y="263" fill="#7a7f87">  web-client</text><text x="28" y="291" fill="#7a7f87">  data-pipeline</text><g opacity="1"><rect x="28.5" y="304.5" width="151.8" height="31" fill="#3a3a3a" stroke="#505050" stroke-width="1.25" rx="3" /><g transform="translate(44.00000000000001 313) scale(0.875)" color="#ffffff"><line x1="8" y1="3" x2="8" y2="13" stroke="currentColor" stroke-width="2" stroke-linecap="round" /><line x1="3" y1="8" x2="13" y2="8" stroke="currentColor" stroke-width="2" stroke-linecap="round" /></g><text x="64" y="324.6666666666667" font-weight="500" fill="#ffffff">Add Repository</text></g><line x1="28" y1="350" x2="244" y2="350" stroke="#c4c4c4" stroke-width="1" /><text x="28" y="379" fill="#7a7f87">Support</text><g transform="translate(264 104) scale(1.5)" color="#6b7078"><polygon points="8,2 14,6 14,10 8,14 2,10 2,6" fill="none" stroke="currentColor" stroke-width="1.4" stroke-linejoin="round" /><circle cx="8" cy="8" r="2" fill="currentColor" /></g><text x="296" y="123.28571428571428" font-weight="700" font-size="18" fill="#2d2d2d">core-api</text><text x="264" y="150.57142857142858" font-size="12" fill="#7a7f87">acme/core-api</text><rect x="553.8142857142858" y="104.5" width="76.2" height="21" rx="11" fill="#e8f3ec" stroke="#3f8f5c" stroke-width="1" /><path d="M 563.3142857142858 115 L 567.3142857142858 119 L 573.3142857142858 111" fill="none" stroke="#3f8f5c" stroke-width="1.8" stroke-linecap="round" stroke-linejoin="round" /><text x="579.3142857142858" y="119.66666666666667" font-size="12" font-weight="500" fill="#205537">Synced</text><text x="638.5142857142858" y="116.85714285714286" font-size="12" fill="#7a7f87">Last synced 4m ago</text><g opacity="1"><rect x="758.1000000000001" y="104.5" width="79.8" height="31" fill="#3a3a3a" stroke="#505050" stroke-width="1.25" rx="3" /><g transform="translate(773.6000000000001 113) scale(0.875)" color="#ffffff"><path d="M 3 8 L 7 12 L 13 4" fill="none" stroke="currentColor" stroke-width="2" stroke-linecap="round" stroke-linejoin="round" /></g><text x="793.6000000000001" y="124.66666666666667" font-weight="500" fill="#ffffff">Sync</text></g><line x1="264" y1="198.35714285714286" x2="838.4000000000001" y2="198.35714285714286" stroke="#b0b0b0" stroke-width="1" /><text x="278" y="185.52380952380952" font-weight="400" fill="#8a8f97">Dashboard</text><text x="372.8" y="185.52380952380952" font-weight="600" fill="#2d2d2d">Reports</text><line x1="362.8" y1="196.85714285714286" x2="433.20000000000005" y2="196.85714285714286" stroke="#3a3a3a" stroke-width="2" /><text x="453.20000000000005" y="185.52380952380952" font-weight="400" fill="#8a8f97">Settings</text><text x="264" y="224.85714285714286" font-size="11" font-weight="700" letter-spacing="0.8" fill="#6b7078">REPORTS</text><rect x="618.7428571428572" y="208.85714285714286" width="219.65714285714287" height="18" rx="9" fill="#eef0f3" /><text x="728.5714285714287" y="221.52380952380952" text-anchor="middle" font-size="11" font-weight="600" fill="#505560">tab content in repository-reports.md</text><line x1="264" y1="228.85714285714286" x2="838.4000000000001" y2="228.85714285714286" stroke="#c4c4c4" stroke-width="1" opacity="0.6" /><text x="264" y="249.71428571428572" font-size="12" fill="#7a7f87">Toolbar + report grid render here</text></svg>