<svg xmlns="http://www.w3.org/2000/svg" width="1094.057142857143" height="531.1428571428571" viewBox="0 0 1094.057142857143 531.1428571428571" font-family="system-ui, -apple-system, &quot;Segoe UI&quot;, Roboto, sans-serif" font-size="14" id="project-settings-workflow"><rect x="0" y="0" width="1094.057142857143" height="531.1428571428571" fill="#ffffff" /><rect x="0.5" y="0.5" width="1093.057142857143" height="530.1428571428571" fill="none" stroke="#505050" stroke-width="1.25" /><line x1="0" y1="36" x2="1094.057142857143" y2="36" stroke="#b0b0b0" stroke-width="1" /><text x="547.0285714285715" y="23.333333333333332" text-anchor="middle" font-size="16" font-weight="600" fill="#2d2d2d">Engineering Insights — Project Settings</text><line x1="0" y1="88" x2="1094.057142857143" y2="88" stroke="#b0b0b0" stroke-width="1" /><text x="101.42857142857144" y="61" font-weight="700" fill="#2d2d2d">◎ Engineering Insights</text><g opacity="1"><rect x="268.3285714285714" y="46.5" width="160.6" height="31" fill="#ffffff" stroke="#505050" stroke-width="1.25" rx="3" /><text x="348.62857142857143" y="66.66666666666667" text-anchor="middle" font-weight="500" fill="#2d2d2d">Acme Engineering ▾</text></g><text x="437.42857142857144" y="61" fill="#7a7f87">Acme Engineering / Settings / JIRA Workflow Mapping</text><g opacity="1"><rect x="813.1285714285714" y="46.5" width="139" height="31" fill="#ffffff" stroke="#505050" stroke-width="1.25" rx="3" /><text x="882.6285714285714" y="66.66666666666667" text-anchor="middle" font-weight="500" fill="#2d2d2d">Sync events (2)</text></g><circle cx="976.6285714285714" cy="62" r="15.5" fill="#e2e5ea" stroke="#b5b8bd" stroke-width="1" /><text x="976.6285714285714" y="66.33333333333333" text-anchor="middle" font-size="13" font-weight="600" fill="#3a3e44">U</text><rect x="16.5" y="104.5" width="239" height="291" fill="none" stroke="#8a8a8a" stroke-width="1" stroke-dasharray="4 3" rx="2" /><text x="28" y="131" fill="#7a7f87">Connector</text><text x="28" y="159" font-weight="700" fill="#2d2d2d">Settings</text><line x1="28" y1="178" x2="244" y2="178" stroke="#c4c4c4" stroke-width="1" /><text x="28" y="207" fill="#7a7f87">Repositories</text><text x="28" y="235" fill="#7a7f87">  core-api</text><text x="28" y="263" fill="#7a7f87">  web-client</text><text x="28" y="291" fill="#7a7f87">  data-pipeline</text><g opacity="1"><rect x="28.5" y="304.5" width="151.8" height="31" fill="#3a3a3a" stroke="#505050" stroke-width="1.25" rx="3" /><g transform="translate(44.00000000000001 313) scale(0.875)" color="#ffffff"><line x1="8" y1="3" x2="8" y2="13" stroke="currentColor" stroke-width="2" stroke-linecap="round" /><line x1="3" y1="8" x2="13" y2="8" stroke="currentColor" stroke-width="2" stroke-linecap="round" /></g><text x="64" y="324.6666666666667" font-weight="500" fill="#ffffff">Add Repository</text></g><line x1="28" y1="350" x2="244" y2="350" stroke="#c4c4c4" stroke-width="1" /><text x="28" y="379" fill="#7a7f87">Support</text><rect x="264.5" y="104.5" width="199" height="152.14285714285714" fill="none" stroke="#8a8a8a" stroke-width="1" stroke-dasharray="4 3" rx="2" /><text x="276" y="128.85714285714286" font-weight="700" font-size="12" fill="#7a7f87">PROJECT SETTINGS</text><text x="276" y="156.14285714285714" fill="#7a7f87">Metadata</text><text x="276" y="184.14285714285714" fill="#7a7f87">User Access — locked</text><text x="276" y="212.14285714285714" font-weight="700" fill="#2d2d2d">JIRA Workflow Mapping</text><text x="276" y="240.14285714285714" fill="#7a7f87">JIRA Configuration</text><text x="472" y="116.85714285714286" font-size="12" fill="#7a7f87">Lifecycle</text><text x="472" y="148.42857142857142" font-weight="700" font-size="18" fill="#2d2d2d">JIRA Workflow Mapping</text><text x="472" y="175.71428571428572" font-size="12" fill="#7a7f87">Map this Project's JIRA statuses to the six canonical phases.</text><g opacity="1"><rect x="856.9571428571429" y="104.5" width="131.8" height="31" fill="#ffffff" stroke="#505050" stroke-width="1.25" rx="3" /><text x="922.8571428571429" y="124.66666666666667" text-anchor="middle" font-weight="500" fill="#2d2d2d">Infer unmapped</text></g><g opacity="1"><rect x="997.757142857143" y="104.5" width="79.8" height="31" fill="#3a3a3a" stroke="#505050" stroke-width="1.25" rx="3" /><g transform="translate(1013.257142857143 113) scale(0.875)" color="#ffffff"><path d="M 3 8 L 7 12 L 13 4" fill="none" stroke="currentColor" stroke-width="2" stroke-linecap="round" stroke-linejoin="round" /></g><text x="1033.257142857143" y="124.66666666666667" font-weight="500" fill="#ffffff">Save</text></g><rect x="472.5" y="188.5" width="69.4" height="21" rx="11" fill="#eef0f3" stroke="#c4c8ce" stroke-width="1" /><text x="482" y="203.66666666666666" font-size="12" fill="#3a3e44">backlog</text><rect x="550.9" y="188.5" width="55" height="21" rx="11" fill="#eef0f3" stroke="#c4c8ce" stroke-width="1" /><text x="560.4" y="203.66666666666666" font-size="12" fill="#3a3e44">ready</text><rect x="614.9" y="188.5" width="62.2" height="21" rx="11" fill="#eef0f3" stroke="#c4c8ce" stroke-width="1" /><text x="624.4" y="203.66666666666666" font-size="12" fill="#3a3e44">in_dev</text><rect x="686.1" y="188.5" width="40.6" height="21" rx="11" fill="#eef0f3" stroke="#c4c8ce" stroke-width="1" /><text x="695.6" y="203.66666666666666" font-size="12" fill="#3a3e44">str</text><rect x="735.7" y="188.5" width="33.4" height="21" rx="11" fill="#eef0f3" stroke="#c4c8ce" stroke-width="1" /><text x="745.2" y="203.66666666666666" font-size="12" fill="#3a3e44">qa</text><rect x="778.1" y="188.5" width="47.8" height="21" rx="11" fill="#eef0f3" stroke="#c4c8ce" stroke-width="1" /><text x="787.6" y="203.66666666666666" font-size="12" fill="#3a3e44">done</text><text x="472" y="236" font-size="11" font-weight="700" letter-spacing="0.8" fill="#6b7078">STATUS → PHASE</text><rect x="943.257142857143" y="220" width="134.8" height="18" rx="9" fill="#eef0f3" /><text x="1010.657142857143" y="232.66666666666666" text-anchor="middle" font-size="11" font-weight="600" fill="#505560">6 mapped · 1 unmapped</text><line x1="472" y1="240" x2="1078.057142857143" y2="240" stroke="#c4c4c4" stroke-width="1" opacity="0.6" /><text x="472" y="260.85714285714283" font-weight="700" font-size="12" fill="#7a7f87">Jira status</text><text x="750.0571428571429" y="260.85714285714283" font-weight="700" font-size="12" fill="#7a7f87">Canonical phase</text><text x="958.0571428571429" y="260.85714285714283" font-weight="700" font-size="12" fill="#7a7f87">State</text><line x1="472" y1="279.14285714285717" x2="1078.057142857143" y2="279.14285714285717" stroke="#c4c4c4" stroke-width="1" /><text x="472" y="308.14285714285717" fill="#2d2d2d">Backlog</text><text x="750.0571428571429" y="308.14285714285717" fill="#2d2d2d">backlog</text><text x="958.0571428571429" y="306" font-size="12" fill="#7a7f87">mapped</text><text x="472" y="336.14285714285717" fill="#2d2d2d">To Do</text><text x="750.0571428571429" y="336.14285714285717" fill="#2d2d2d">ready</text><text x="958.0571428571429" y="334" font-size="12" fill="#7a7f87">mapped</text><text x="472" y="364.14285714285717" fill="#2d2d2d">In Progress</text><text x="750.0571428571429" y="364.14285714285717" fill="#2d2d2d">in_dev</text><text x="958.0571428571429" y="362" font-size="12" fill="#7a7f87">mapped</text><text x="472" y="392.14285714285717" fill="#2d2d2d">In Review</text><text x="750.0571428571429" y="392.14285714285717" fill="#2d2d2d">str</text><text x="958.0571428571429" y="390" font-size="12" fill="#7a7f87">mapped</text><text x="472" y="420.14285714285717" fill="#2d2d2d">QA</text><text x="750.0571428571429" y="420.14285714285717" fill="#2d2d2d">qa</text><text x="958.0571428571429" y="418" font-size="12" fill="#7a7f87">mapped</text><text x="472" y="448.14285714285717" fill="#2d2d2d">Done</text><text x="750.0571428571429" y="448.14285714285717" fill="#2d2d2d">done</text><text x="958.0571428571429" y="446" font-size="12" fill="#7a7f87">mapped</text><line x1="472" y1="467.14285714285717" x2="1078.057142857143" y2="467.14285714285717" stroke="#c4c4c4" stroke-width="1" /><text x="472" y="496.14285714285717" fill="#c79a2e">Ready for Deploy</text><text x="750.0571428571429" y="496.14285714285717" fill="#7a7f87">— select phase —</text><rect x="958.5571428571429" y="481.64285714285717" width="127" height="21" rx="11" fill="#eef0f3" stroke="#3f7cc2" stroke-width="1" /><text x="968.0571428571429" y="496.80952380952385" font-size="12" fill="#3f7cc2">inferred: done?</text></svg>