<svg xmlns="http://www.w3.org/2000/svg" width="1266.7428571428572" height="728.5714285714286" viewBox="0 0 1266.7428571428572 728.5714285714286" font-family="system-ui, -apple-system, &quot;Segoe UI&quot;, Roboto, sans-serif" font-size="14" id="project-connector"><rect x="0" y="0" width="1266.7428571428572" height="728.5714285714286" fill="#ffffff" /><rect x="0.5" y="0.5" width="1265.7428571428572" height="727.5714285714286" fill="none" stroke="#505050" stroke-width="1.25" /><line x1="0" y1="36" x2="1266.7428571428572" y2="36" stroke="#b0b0b0" stroke-width="1" /><text x="633.3714285714286" y="23.333333333333332" text-anchor="middle" font-size="16" font-weight="600" fill="#2d2d2d">Engineering Insights — Connector</text><line x1="0" y1="88" x2="1266.7428571428572" y2="88" stroke="#b0b0b0" stroke-width="1" /><text x="270.5714285714286" y="61" font-weight="700" fill="#2d2d2d">◎ Engineering Insights</text><g opacity="1"><rect x="437.47142857142865" y="46.5" width="160.6" height="31" fill="#ffffff" stroke="#505050" stroke-width="1.25" rx="3" /><text x="517.7714285714286" y="66.66666666666667" text-anchor="middle" font-weight="500" fill="#2d2d2d">Acme Engineering ▾</text></g><text x="606.5714285714287" y="61" fill="#7a7f87">Acme Engineering / Connector</text><g opacity="1"><rect x="816.6714285714287" y="46.5" width="139" height="31" fill="#ffffff" stroke="#505050" stroke-width="1.25" rx="3" /><text x="886.1714285714287" y="66.66666666666667" text-anchor="middle" font-weight="500" fill="#2d2d2d">Sync events (2)</text></g><circle cx="980.1714285714287" cy="62" r="15.5" fill="#e2e5ea" stroke="#b5b8bd" stroke-width="1" /><text x="980.1714285714287" y="66.33333333333333" text-anchor="middle" font-size="13" font-weight="600" fill="#3a3e44">U</text><rect x="16.5" y="104.5" width="239" height="291" fill="none" stroke="#8a8a8a" stroke-width="1" stroke-dasharray="4 3" rx="2" /><text x="28" y="131" font-weight="700" fill="#2d2d2d">Connector</text><text x="28" y="159" fill="#7a7f87">Settings</text><line x1="28" y1="178" x2="244" y2="178" stroke="#c4c4c4" stroke-width="1" /><text x="28" y="207" fill="#7a7f87">Repositories</text><text x="28" y="235" fill="#7a7f87">  core-api</text><text x="28" y="263" fill="#7a7f87">  web-client</text><text x="28" y="291" fill="#7a7f87">  data-pipeline</text><g opacity="1"><rect x="28.5" y="304.5" width="151.8" height="31" fill="#3a3a3a" stroke="#505050" stroke-width="1.25" rx="3" /><g transform="translate(44.00000000000001 313) scale(0.875)" color="#ffffff"><line x1="8" y1="3" x2="8" y2="13" stroke="currentColor" stroke-width="2" stroke-linecap="round" /><line x1="3" y1="8" x2="13" y2="8" stroke="currentColor" stroke-width="2" stroke-linecap="round" /></g><text x="64" y="324.6666666666667" font-weight="500" fill="#ffffff">Add Repository</text></g><line x1="28" y1="350" x2="244" y2="350" stroke="#c4c4c4" stroke-width="1" /><text x="28" y="379" fill="#7a7f87">Support</text><rect x="264.5" y="104.5" width="985.7428571428572" height="101.85714285714286" fill="none" stroke="#8a8a8a" stroke-width="1" stroke-dasharray="4 3" rx="2" /><text x="276" y="128.85714285714286" font-size="12" fill="#7a7f87">Data Sources</text><text x="276" y="160.42857142857142" font-weight="700" font-size="18" fill="#2d2d2d">Connector</text><text x="276" y="189.85714285714286" fill="#7a7f87">GitHub and Jira connections for this Project. Repositories inherit these unless they set an override.</text><text x="264" y="232.85714285714286" font-size="11" font-weight="700" letter-spacing="0.8" fill="#6b7078">GITHUB</text><line x1="264" y1="236.85714285714286" x2="1250.7428571428572" y2="236.85714285714286" stroke="#c4c4c4" stroke-width="1" opacity="0.6" /><rect x="264.5" y="245.35714285714286" width="985.7428571428572" height="161.28571428571436" fill="#fafbfc" stroke="#3f8f5c" stroke-width="1" rx="4" /><text x="274" y="270.25714285714287" font-weight="600" fill="#2d2d2d">GitHub App</text><rect x="274.5" y="285.3571428571429" width="97.8" height="21" rx="11" fill="#e8f3ec" stroke="#3f8f5c" stroke-width="1" /><path d="M 284 295.8571428571429 L 288 299.8571428571429 L 294 291.8571428571429" fill="none" stroke="#3f8f5c" stroke-width="1.8" stroke-linecap="round" stroke-linejoin="round" /><text x="300" y="300.5238095238096" font-size="12" font-weight="500" fill="#205537">Connected</text><text x="274" y="327.7142857142857" font-size="12" fill="#7a7f87">Installation: acme · token v3</text><text x="274" y="352.8571428571429" font-size="12" fill="#7a7f87">Last rotated 12d ago</text><g opacity="1"><rect x="1097.2428571428572" y="365.6428571428572" width="59.8" height="31" fill="#ffffff" stroke="#505050" stroke-width="1.25" rx="3" /><text x="1127.1428571428573" y="385.8095238095239" text-anchor="middle" font-weight="500" fill="#2d2d2d">Test</text></g><g opacity="1"><rect x="1166.0428571428572" y="365.6428571428572" width="74.2" height="31" fill="#ffffff" stroke="#505050" stroke-width="1.25" rx="3" /><text x="1203.142857142857" y="385.8095238095239" text-anchor="middle" font-weight="500" fill="#2d2d2d">Manage</text></g><text x="264" y="445.1428571428572" font-size="11" font-weight="700" letter-spacing="0.8" fill="#6b7078">JIRA</text><line x1="264" y1="449.1428571428572" x2="1250.7428571428572" y2="449.1428571428572" stroke="#c4c4c4" stroke-width="1" opacity="0.6" /><rect x="264.5" y="457.6428571428572" width="985.7428571428572" height="161.28571428571422" fill="#fafbfc" stroke="#3f8f5c" stroke-width="1" rx="4" /><text x="274" y="482.5428571428572" font-weight="600" fill="#2d2d2d">Jira Software</text><rect x="274.5" y="497.6428571428572" width="97.8" height="21" rx="11" fill="#e8f3ec" stroke="#3f8f5c" stroke-width="1" /><path d="M 284 508.1428571428572 L 288 512.1428571428572 L 294 504.1428571428572" fill="none" stroke="#3f8f5c" stroke-width="1.8" stroke-linecap="round" stroke-linejoin="round" /><text x="300" y="512.8095238095239" font-size="12" font-weight="500" fill="#205537">Connected</text><text x="274" y="540.0000000000001" font-size="12" fill="#7a7f87">Cloud: acme.atlassian.net · token v1</text><text x="274" y="565.1428571428572" font-size="12" fill="#7a7f87">Space: PROJ (1-1 with this Project)</text><g opacity="1"><rect x="1090.0428571428572" y="577.9285714285714" width="59.8" height="31" fill="#ffffff" stroke="#505050" stroke-width="1.25" rx="3" /><text x="1119.9428571428573" y="598.0952380952381" text-anchor="middle" font-weight="500" fill="#2d2d2d">Test</text></g><g opacity="1"><rect x="1158.8428571428572" y="577.9285714285714" width="81.4" height="31" fill="#ffffff" stroke="#505050" stroke-width="1.25" rx="3" /><text x="1199.5428571428572" y="598.0952380952381" text-anchor="middle" font-weight="500" fill="#2d2d2d">Re-auth</text></g><rect x="264.5" y="639.9285714285714" width="985.7428571428572" height="72.14285714285711" fill="none" stroke="#8a8a8a" stroke-width="1" stroke-dasharray="4 3" rx="2" /><g transform="translate(276 651.4285714285714) scale(1.5)" color="#6b7078"><path d="M 3 14 L 3 5 L 5 5 L 5 3 L 11 3 L 11 5 L 13 5 L 13 14 Z" fill="none" stroke="currentColor" stroke-width="1.4" stroke-linejoin="round" /><line x1="8" y1="5" x2="8" y2="14" stroke="currentColor" stroke-width="1" /></g><text x="276" y="696.2857142857143" font-size="12" fill="#7a7f87">OAuth 2.0 / scoped tokens only. No raw credentials stored, keys rotate via versioned columns without re-auth, and tokens are never returned to the frontend.</text></svg>