<svg xmlns="http://www.w3.org/2000/svg" width="1209.3714285714286" height="569.7142857142857" viewBox="0 0 1209.3714285714286 569.7142857142857" font-family="system-ui, -apple-system, &quot;Segoe UI&quot;, Roboto, sans-serif" font-size="14" id="project-settings"><rect x="0" y="0" width="1209.3714285714286" height="569.7142857142857" fill="#ffffff" /><rect x="0.5" y="0.5" width="1208.3714285714286" height="568.7142857142857" fill="none" stroke="#505050" stroke-width="1.25" /><line x1="0" y1="36" x2="1209.3714285714286" y2="36" stroke="#b0b0b0" stroke-width="1" /><text x="604.6857142857143" y="23.333333333333332" text-anchor="middle" font-size="16" font-weight="600" fill="#2d2d2d">Engineering Insights — Project Settings</text><line x1="0" y1="88" x2="1209.3714285714286" y2="88" stroke="#b0b0b0" stroke-width="1" /><text x="245.48571428571432" y="61" font-weight="700" fill="#2d2d2d">◎ Engineering Insights</text><g opacity="1"><rect x="412.38571428571436" y="46.5" width="160.6" height="31" fill="#ffffff" stroke="#505050" stroke-width="1.25" rx="3" /><text x="492.68571428571437" y="66.66666666666667" text-anchor="middle" font-weight="500" fill="#2d2d2d">Acme Engineering ▾</text></g><text x="581.4857142857143" y="61" fill="#7a7f87">Acme Engineering / Settings</text><g opacity="1"><rect x="784.3857142857142" y="46.5" width="139" height="31" fill="#ffffff" stroke="#505050" stroke-width="1.25" rx="3" /><text x="853.8857142857142" y="66.66666666666667" text-anchor="middle" font-weight="500" fill="#2d2d2d">Sync events (2)</text></g><circle cx="947.8857142857142" cy="62" r="15.5" fill="#e2e5ea" stroke="#b5b8bd" stroke-width="1" /><text x="947.8857142857142" y="66.33333333333333" text-anchor="middle" font-size="13" font-weight="600" fill="#3a3e44">U</text><rect x="16.5" y="104.5" width="239" height="291" fill="none" stroke="#8a8a8a" stroke-width="1" stroke-dasharray="4 3" rx="2" /><text x="28" y="131" fill="#7a7f87">Connector</text><text x="28" y="159" font-weight="700" fill="#2d2d2d">Settings</text><line x1="28" y1="178" x2="244" y2="178" stroke="#c4c4c4" stroke-width="1" /><text x="28" y="207" fill="#7a7f87">Repositories</text><text x="28" y="235" fill="#7a7f87">  core-api</text><text x="28" y="263" fill="#7a7f87">  web-client</text><text x="28" y="291" fill="#7a7f87">  data-pipeline</text><g opacity="1"><rect x="28.5" y="304.5" width="151.8" height="31" fill="#3a3a3a" stroke="#505050" stroke-width="1.25" rx="3" /><g transform="translate(44.00000000000001 313) scale(0.875)" color="#ffffff"><line x1="8" y1="3" x2="8" y2="13" stroke="currentColor" stroke-width="2" stroke-linecap="round" /><line x1="3" y1="8" x2="13" y2="8" stroke="currentColor" stroke-width="2" stroke-linecap="round" /></g><text x="64" y="324.6666666666667" font-weight="500" fill="#ffffff">Add Repository</text></g><line x1="28" y1="350" x2="244" y2="350" stroke="#c4c4c4" stroke-width="1" /><text x="28" y="379" fill="#7a7f87">Support</text><rect x="264.5" y="104.5" width="199" height="152.14285714285714" fill="none" stroke="#8a8a8a" stroke-width="1" stroke-dasharray="4 3" rx="2" /><text x="276" y="128.85714285714286" font-weight="700" font-size="12" fill="#7a7f87">PROJECT SETTINGS</text><text x="276" y="156.14285714285714" font-weight="700" fill="#2d2d2d">Metadata</text><text x="276" y="184.14285714285714" fill="#7a7f87">User Access — locked</text><text x="276" y="212.14285714285714" fill="#7a7f87">JIRA Workflow Mapping</text><text x="276" y="240.14285714285714" fill="#7a7f87">JIRA Configuration</text><text x="472" y="116.85714285714286" font-size="12" fill="#7a7f87">Project</text><text x="472" y="148.42857142857142" font-weight="700" font-size="18" fill="#2d2d2d">Metadata</text><text x="472" y="175.71428571428572" font-size="12" fill="#7a7f87">Identity for this Project (1-1 with its JIRA space).</text><g opacity="1"><rect x="1113.0714285714287" y="104.5" width="79.8" height="31" fill="#3a3a3a" stroke="#505050" stroke-width="1.25" rx="3" /><g transform="translate(1128.5714285714287 113) scale(0.875)" color="#ffffff"><path d="M 3 8 L 7 12 L 13 4" fill="none" stroke="currentColor" stroke-width="2" stroke-linecap="round" stroke-linejoin="round" /></g><text x="1148.5714285714287" y="124.66666666666667" font-weight="500" fill="#ffffff">Save</text></g><text x="472" y="206" font-size="11" font-weight="700" letter-spacing="0.8" fill="#6b7078">GENERAL</text><line x1="472" y1="210" x2="1193.3714285714286" y2="210" stroke="#c4c4c4" stroke-width="1" opacity="0.6" /><text x="472" y="230.85714285714286" font-weight="700" font-size="12" fill="#7a7f87">Project name</text><g opacity="1"><rect x="472.5" y="243.64285714285714" width="439" height="31" fill="#ffffff" stroke="#8a8a8a" stroke-width="1" rx="2" /><text x="484" y="263.8095238095238" fill="#9aa0a6">Acme Engineering</text></g><text x="472" y="295.99999999999994" font-weight="700" font-size="12" fill="#7a7f87">Description</text><g opacity="1"><rect x="472.5" y="308.7857142857143" width="439" height="31" fill="#ffffff" stroke="#8a8a8a" stroke-width="1" rx="2" /><text x="484" y="328.95238095238096" fill="#9aa0a6">Short summary shown on dashboards</text></g><text x="472" y="378.2857142857143" font-size="11" font-weight="700" letter-spacing="0.8" fill="#6b7078">JIRA SPACE</text><rect x="1160.4" y="362.2857142857143" width="32.971428571428575" height="18" rx="9" fill="#eef0f3" /><text x="1176.8857142857144" y="374.95238095238096" text-anchor="middle" font-size="11" font-weight="600" fill="#505560">1-1</text><line x1="472" y1="382.2857142857143" x2="1193.3714285714286" y2="382.2857142857143" stroke="#c4c4c4" stroke-width="1" opacity="0.6" /><text x="472" y="403.1428571428571" font-weight="700" font-size="12" fill="#7a7f87">Linked space</text><text x="472" y="430.42857142857144" fill="#7a7f87">acme.atlassian.net · PROJ</text><text x="472" y="456.2857142857143" font-size="12" font-style="italic" fill="#7a7f87">Connection managed under JIRA Configuration; status→phase under JIRA Workflow Mapping.</text><rect x="472.5" y="481.0714285714286" width="720.3714285714286" height="72.14285714285717" fill="none" stroke="#8a8a8a" stroke-width="1" stroke-dasharray="4 3" rx="2" /><g transform="translate(484 492.5714285714286) scale(1.5)" color="#6b7078"><path d="M 4 2 L 11 2 L 13 4 L 13 14 L 4 14 Z" fill="none" stroke="currentColor" stroke-width="1.4" stroke-linejoin="round" /><line x1="6" y1="7" x2="11" y2="7" stroke="currentColor" stroke-width="1" /><line x1="6" y1="10" x2="11" y2="10" stroke="currentColor" stroke-width="1" /></g><text x="484" y="537.4285714285716" font-size="12" fill="#7a7f87">User Access (roles, invitations) is planned post-MVP — the section stays visible but disabled to teach the model.</text></svg>