<svg xmlns="http://www.w3.org/2000/svg" width="1344.9142857142856" height="617.1428571428571" viewBox="0 0 1344.9142857142856 617.1428571428571" font-family="system-ui, -apple-system, &quot;Segoe UI&quot;, Roboto, sans-serif" font-size="14" id="repository-settings"><rect x="0" y="0" width="1344.9142857142856" height="617.1428571428571" fill="#ffffff" /><rect x="0.5" y="0.5" width="1343.9142857142856" height="616.1428571428571" fill="none" stroke="#505050" stroke-width="1.25" /><line x1="0" y1="36" x2="1344.9142857142856" y2="36" stroke="#b0b0b0" stroke-width="1" /><text x="672.4571428571428" y="23.333333333333332" text-anchor="middle" font-size="16" font-weight="600" fill="#2d2d2d">Engineering Insights — core-api</text><line x1="0" y1="88" x2="1344.9142857142856" y2="88" stroke="#b0b0b0" stroke-width="1" /><text x="273.6571428571428" y="61" font-weight="700" fill="#2d2d2d">◎ Engineering Insights</text><g opacity="1"><rect x="440.5571428571428" y="46.5" width="160.6" height="31" fill="#ffffff" stroke="#505050" stroke-width="1.25" rx="3" /><text x="520.8571428571428" y="66.66666666666667" text-anchor="middle" font-weight="500" fill="#2d2d2d">Acme Engineering ▾</text></g><text x="609.6571428571428" y="61" fill="#7a7f87">Acme Engineering / core-api / Settings</text><g opacity="1"><rect x="891.7571428571429" y="46.5" width="139" height="31" fill="#ffffff" stroke="#505050" stroke-width="1.25" rx="3" /><text x="961.2571428571429" y="66.66666666666667" text-anchor="middle" font-weight="500" fill="#2d2d2d">Sync events (2)</text></g><circle cx="1055.2571428571428" cy="62" r="15.5" fill="#e2e5ea" stroke="#b5b8bd" stroke-width="1" /><text x="1055.2571428571428" y="66.33333333333333" text-anchor="middle" font-size="13" font-weight="600" fill="#3a3e44">U</text><rect x="16.5" y="104.5" width="239" height="291" fill="none" stroke="#8a8a8a" stroke-width="1" stroke-dasharray="4 3" rx="2" /><text x="28" y="131" fill="#7a7f87">Connector</text><text x="28" y="159" fill="#7a7f87">Settings</text><line x1="28" y1="178" x2="244" y2="178" stroke="#c4c4c4" stroke-width="1" /><text x="28" y="207" fill="#7a7f87">Repositories</text><text x="28" y="235" font-weight="700" fill="#3f7cc2">  core-api</text><text x="28" y="263" fill="#7a7f87">  web-client</text><text x="28" y="291" fill="#7a7f87">  data-pipeline</text><g opacity="1"><rect x="28.5" y="304.5" width="151.8" height="31" fill="#3a3a3a" stroke="#505050" stroke-width="1.25" rx="3" /><g transform="translate(44.00000000000001 313) scale(0.875)" color="#ffffff"><line x1="8" y1="3" x2="8" y2="13" stroke="currentColor" stroke-width="2" stroke-linecap="round" /><line x1="3" y1="8" x2="13" y2="8" stroke="currentColor" stroke-width="2" stroke-linecap="round" /></g><text x="64" y="324.6666666666667" font-weight="500" fill="#ffffff">Add Repository</text></g><line x1="28" y1="350" x2="244" y2="350" stroke="#c4c4c4" stroke-width="1" /><text x="28" y="379" fill="#7a7f87">Support</text><g transform="translate(264 104) scale(1.5)" color="#6b7078"><polygon points="8,2 14,6 14,10 8,14 2,10 2,6" fill="none" stroke="currentColor" stroke-width="1.4" stroke-linejoin="round" /><circle cx="8" cy="8" r="2" fill="currentColor" /></g><text x="296" y="123.28571428571428" font-weight="700" font-size="18" fill="#2d2d2d">core-api</text><text x="264" y="150.57142857142858" font-size="12" fill="#7a7f87">acme/core-api</text><rect x="1044.3285714285712" y="104.5" width="76.2" height="21" rx="11" fill="#e8f3ec" stroke="#3f8f5c" stroke-width="1" /><path d="M 1053.8285714285712 115 L 1057.8285714285712 119 L 1063.8285714285712 111" fill="none" stroke="#3f8f5c" stroke-width="1.8" stroke-linecap="round" stroke-linejoin="round" /><text x="1069.8285714285712" y="119.66666666666667" font-size="12" font-weight="500" fill="#205537">Synced</text><text x="1129.0285714285712" y="116.85714285714286" font-size="12" fill="#7a7f87">Last synced 4m ago</text><g opacity="1"><rect x="1248.6142857142854" y="104.5" width="79.8" height="31" fill="#3a3a3a" stroke="#505050" stroke-width="1.25" rx="3" /><g transform="translate(1264.1142857142854 113) scale(0.875)" color="#ffffff"><path d="M 3 8 L 7 12 L 13 4" fill="none" stroke="currentColor" stroke-width="2" stroke-linecap="round" stroke-linejoin="round" /></g><text x="1284.1142857142854" y="124.66666666666667" font-weight="500" fill="#ffffff">Sync</text></g><line x1="264" y1="198.35714285714286" x2="1328.9142857142856" y2="198.35714285714286" stroke="#b0b0b0" stroke-width="1" /><text x="278" y="185.52380952380952" font-weight="400" fill="#8a8f97">Dashboard</text><text x="372.8" y="185.52380952380952" font-weight="400" fill="#8a8f97">Reports</text><text x="453.20000000000005" y="185.52380952380952" font-weight="600" fill="#2d2d2d">Settings</text><line x1="443.20000000000005" y1="196.85714285714286" x2="520.8000000000001" y2="196.85714285714286" stroke="#3a3a3a" stroke-width="2" /><rect x="264.5" y="207.35714285714286" width="199" height="96.14285714285714" fill="none" stroke="#8a8a8a" stroke-width="1" stroke-dasharray="4 3" rx="2" /><text x="276" y="231.71428571428572" font-weight="700" font-size="12" fill="#7a7f87">REPO SETTINGS</text><text x="276" y="259" font-weight="700" fill="#2d2d2d">Clusters</text><text x="276" y="287" fill="#7a7f87">Connector override</text><text x="472" y="219.71428571428572" font-size="12" fill="#7a7f87">Code Areas</text><text x="472" y="251.28571428571428" font-weight="700" font-size="18" fill="#2d2d2d">Clusters</text><text x="472" y="278.57142857142856" font-size="12" fill="#7a7f87">Files grouped by longest-prefix match. Human-curated clusters survive recompute.</text><g opacity="1"><rect x="974.2142857142856" y="207.35714285714286" width="110.2" height="31" fill="#ffffff" stroke="#505050" stroke-width="1.25" rx="3" /><text x="1029.3142857142855" y="227.52380952380952" text-anchor="middle" font-weight="500" fill="#2d2d2d">Import JSON</text></g><g opacity="1"><rect x="1093.4142857142856" y="207.35714285714286" width="95.8" height="31" fill="#ffffff" stroke="#505050" stroke-width="1.25" rx="3" /><text x="1141.3142857142857" y="227.52380952380952" text-anchor="middle" font-weight="500" fill="#2d2d2d">Recompute</text></g><g opacity="1"><rect x="1198.2142857142856" y="207.35714285714286" width="130.2" height="31" fill="#3a3a3a" stroke="#505050" stroke-width="1.25" rx="3" /><g transform="translate(1213.7142857142856 215.85714285714286) scale(0.875)" color="#ffffff"><line x1="8" y1="3" x2="8" y2="13" stroke="currentColor" stroke-width="2" stroke-linecap="round" /><line x1="3" y1="8" x2="13" y2="8" stroke="currentColor" stroke-width="2" stroke-linecap="round" /></g><text x="1233.7142857142856" y="227.52380952380952" font-weight="500" fill="#ffffff">Add Cluster</text></g><text x="472" y="308.8571428571429" font-size="11" font-weight="700" letter-spacing="0.8" fill="#6b7078">CLUSTERS</text><rect x="1267.6571428571428" y="292.8571428571429" width="61.25714285714286" height="18" rx="9" fill="#eef0f3" /><text x="1298.2857142857142" y="305.5238095238096" text-anchor="middle" font-size="11" font-weight="600" fill="#505560">5 active</text><line x1="472" y1="312.8571428571429" x2="1328.9142857142856" y2="312.8571428571429" stroke="#c4c4c4" stroke-width="1" opacity="0.6" /><text x="472" y="333.7142857142857" font-weight="700" font-size="12" fill="#7a7f87">Name</text><text x="776.4571428571428" y="333.7142857142857" font-weight="700" font-size="12" fill="#7a7f87">File pattern</text><text x="1080.9142857142856" y="333.7142857142857" font-weight="700" font-size="12" fill="#7a7f87">Curation</text><text x="1228.9142857142856" y="333.7142857142857" font-weight="700" font-size="12" fill="#7a7f87">Files</text><line x1="472" y1="352.00000000000006" x2="1328.9142857142856" y2="352.00000000000006" stroke="#c4c4c4" stroke-width="1" /><text x="472" y="381.00000000000006" fill="#2d2d2d">API</text><text x="776.4571428571428" y="378.8571428571429" font-size="12" fill="#7a7f87">src/api/**</text><rect x="1081.4142857142856" y="366.50000000000006" width="83.8" height="21" rx="11" fill="#eef0f3" stroke="#3f8f5c" stroke-width="1" /><text x="1090.9142857142856" y="381.66666666666674" font-size="12" fill="#3f8f5c">confirmed</text><text x="1228.9142857142856" y="381.00000000000006" fill="#2d2d2d">142</text><text x="472" y="411.00000000000006" fill="#2d2d2d">Auth</text><text x="776.4571428571428" y="408.8571428571429" font-size="12" fill="#7a7f87">src/auth/**</text><rect x="1081.4142857142856" y="396.50000000000006" width="62.2" height="21" rx="11" fill="#eef0f3" stroke="#3f7cc2" stroke-width="1" /><text x="1090.9142857142856" y="411.66666666666674" font-size="12" fill="#3f7cc2">manual</text><text x="1228.9142857142856" y="411.00000000000006" fill="#2d2d2d">38</text><text x="472" y="441.00000000000006" fill="#2d2d2d">Database</text><text x="776.4571428571428" y="438.8571428571429" font-size="12" fill="#7a7f87">src/db/**</text><rect x="1081.4142857142856" y="426.50000000000006" width="69.4" height="21" rx="11" fill="#eef0f3" stroke="#3f7cc2" stroke-width="1" /><text x="1090.9142857142856" y="441.66666666666674" font-size="12" fill="#3f7cc2">renamed</text><text x="1228.9142857142856" y="441.00000000000006" fill="#2d2d2d">64</text><text x="472" y="471.00000000000006" fill="#2d2d2d">UI Components</text><text x="776.4571428571428" y="468.8571428571429" font-size="12" fill="#7a7f87">src/components/**</text><rect x="1081.4142857142856" y="456.50000000000006" width="47.8" height="21" rx="11" fill="#eef0f3" stroke="#c4c8ce" stroke-width="1" /><text x="1090.9142857142856" y="471.66666666666674" font-size="12" fill="#3a3e44">auto</text><text x="1228.9142857142856" y="471.00000000000006" fill="#2d2d2d">210</text><text x="472" y="501.00000000000006" fill="#2d2d2d">Legacy Jobs</text><text x="776.4571428571428" y="498.8571428571429" font-size="12" fill="#7a7f87">src/jobs/**</text><rect x="1081.4142857142856" y="486.50000000000006" width="76.6" height="21" rx="11" fill="#eef0f3" stroke="#c79a2e" stroke-width="1" /><text x="1090.9142857142856" y="501.66666666666674" font-size="12" fill="#c79a2e">archived</text><text x="1228.9142857142856" y="501.00000000000006" fill="#2d2d2d">17</text><rect x="472.5" y="528.5" width="855.9142857142856" height="72.14285714285711" fill="none" stroke="#8a8a8a" stroke-width="1" stroke-dasharray="4 3" rx="2" /><g transform="translate(484 540) scale(1.5)" color="#6b7078"><path d="M 4 2 L 11 2 L 13 4 L 13 14 L 4 14 Z" fill="none" stroke="currentColor" stroke-width="1.4" stroke-linejoin="round" /><line x1="6" y1="7" x2="11" y2="7" stroke="currentColor" stroke-width="1" /><line x1="6" y1="10" x2="11" y2="10" stroke="currentColor" stroke-width="1" /></g><text x="484" y="584.8571428571429" font-size="12" fill="#7a7f87">Recompute reassigns files by longest-prefix match but never overwrites confirmed / renamed / manual clusters (§4.2).</text></svg>