<svg xmlns="http://www.w3.org/2000/svg" width="888.8" height="495.1428571428571" viewBox="0 0 888.8 495.1428571428571" font-family="system-ui, -apple-system, &quot;Segoe UI&quot;, Roboto, sans-serif" font-size="14" id="repository-landing"><rect x="0" y="0" width="888.8" height="495.1428571428571" fill="#ffffff" /><rect x="0.5" y="0.5" width="887.8" height="494.1428571428571" fill="none" stroke="#505050" stroke-width="1.25" /><line x1="0" y1="36" x2="888.8" y2="36" stroke="#b0b0b0" stroke-width="1" /><text x="444.4" y="23.333333333333332" text-anchor="middle" font-size="16" font-weight="600" fill="#2d2d2d">Engineering Insights — Repositories</text><line x1="0" y1="88" x2="888.8" y2="88" stroke="#b0b0b0" stroke-width="1" /><text x="70.79999999999995" y="61" font-weight="700" fill="#2d2d2d">◎ Engineering Insights</text><g opacity="1"><rect x="237.69999999999996" y="46.5" width="160.6" height="31" fill="#ffffff" stroke="#505050" stroke-width="1.25" rx="3" /><text x="317.99999999999994" y="66.66666666666667" text-anchor="middle" font-weight="500" fill="#2d2d2d">Acme Engineering ▾</text></g><text x="406.79999999999995" y="61" fill="#7a7f87">Acme Engineering / Repositories</text><g opacity="1"><rect x="638.5" y="46.5" width="139" height="31" fill="#ffffff" stroke="#505050" stroke-width="1.25" rx="3" /><text x="708" y="66.66666666666667" text-anchor="middle" font-weight="500" fill="#2d2d2d">Sync events (2)</text></g><circle cx="802" cy="62" r="15.5" fill="#e2e5ea" stroke="#b5b8bd" stroke-width="1" /><text x="802" y="66.33333333333333" text-anchor="middle" font-size="13" font-weight="600" fill="#3a3e44">U</text><rect x="16.5" y="104.5" width="239" height="291" fill="none" stroke="#8a8a8a" stroke-width="1" stroke-dasharray="4 3" rx="2" /><text x="28" y="131" fill="#7a7f87">Connector</text><text x="28" y="159" fill="#7a7f87">Settings</text><line x1="28" y1="178" x2="244" y2="178" stroke="#c4c4c4" stroke-width="1" /><text x="28" y="207" font-weight="700" fill="#3f7cc2">Repositories</text><text x="28" y="235" fill="#7a7f87">  core-api</text><text x="28" y="263" fill="#7a7f87">  web-client</text><text x="28" y="291" fill="#7a7f87">  data-pipeline</text><g opacity="1"><rect x="28.5" y="304.5" width="151.8" height="31" fill="#3a3a3a" stroke="#505050" stroke-width="1.25" rx="3" /><g transform="translate(44.00000000000001 313) scale(0.875)" color="#ffffff"><line x1="8" y1="3" x2="8" y2="13" stroke="currentColor" stroke-width="2" stroke-linecap="round" /><line x1="3" y1="8" x2="13" y2="8" stroke="currentColor" stroke-width="2" stroke-linecap="round" /></g><text x="64" y="324.6666666666667" font-weight="500" fill="#ffffff">Add Repository</text></g><line x1="28" y1="350" x2="244" y2="350" stroke="#c4c4c4" stroke-width="1" /><text x="28" y="379" fill="#7a7f87">Support</text><text x="264" y="116.85714285714286" font-size="12" fill="#7a7f87">Project</text><text x="264" y="148.42857142857142" font-weight="700" font-size="18" fill="#2d2d2d">Repositories</text><g opacity="1"><rect x="492.5" y="104.5" width="219" height="31" fill="#ffffff" stroke="#8a8a8a" stroke-width="1" rx="2" /><text x="504" y="124.66666666666667" fill="#9aa0a6">Search repositories...</text></g><g opacity="1"><rect x="720.5" y="104.5" width="151.8" height="31" fill="#3a3a3a" stroke="#505050" stroke-width="1.25" rx="3" /><g transform="translate(736 113) scale(0.875)" color="#ffffff"><line x1="8" y1="3" x2="8" y2="13" stroke="currentColor" stroke-width="2" stroke-linecap="round" /><line x1="3" y1="8" x2="13" y2="8" stroke="currentColor" stroke-width="2" stroke-linecap="round" /></g><text x="756" y="124.66666666666667" font-weight="500" fill="#ffffff">Add Repository</text></g><rect x="264.5" y="163.35714285714286" width="130.0857142857143" height="200.1428571428572" fill="#fafbfc" stroke="#3f8f5c" stroke-width="1" rx="4" /><text x="274" y="188.25714285714287" font-weight="600" fill="#2d2d2d">core-api</text><rect x="274.5" y="203.35714285714286" width="76.2" height="21" rx="11" fill="#e8f3ec" stroke="#3f8f5c" stroke-width="1" /><path d="M 284 213.85714285714286 L 288 217.85714285714286 L 294 209.85714285714286" fill="none" stroke="#3f8f5c" stroke-width="1.8" stroke-linecap="round" stroke-linejoin="round" /><text x="300" y="218.52380952380952" font-size="12" font-weight="500" fill="#205537">Synced</text><text x="274" y="245.71428571428572" font-size="12" fill="#7a7f87">acme/core-api</text><text x="274" y="270.85714285714283" font-size="12" fill="#7a7f87">Last synced 4m ago</text><line x1="274" y1="289.14285714285717" x2="385.0857142857143" y2="289.14285714285717" stroke="#c4c4c4" stroke-width="1" /><text x="274" y="316" font-size="12" fill="#7a7f87">Hero metric</text><text x="274" y="347.5714285714286" font-weight="700" font-size="18" fill="#7a7f87">—</text><rect x="403.5857142857143" y="163.35714285714286" width="136.25714285714287" height="200.1428571428572" fill="#fafbfc" stroke="#3f8f5c" stroke-width="1" rx="4" /><text x="413.0857142857143" y="188.25714285714287" font-weight="600" fill="#2d2d2d">web-client</text><rect x="413.5857142857143" y="203.35714285714286" width="76.2" height="21" rx="11" fill="#e8f3ec" stroke="#3f8f5c" stroke-width="1" /><path d="M 423.0857142857143 213.85714285714286 L 427.0857142857143 217.85714285714286 L 433.0857142857143 209.85714285714286" fill="none" stroke="#3f8f5c" stroke-width="1.8" stroke-linecap="round" stroke-linejoin="round" /><text x="439.0857142857143" y="218.52380952380952" font-size="12" font-weight="500" fill="#205537">Synced</text><text x="413.0857142857143" y="245.71428571428572" font-size="12" fill="#7a7f87">acme/web-client</text><text x="413.0857142857143" y="270.85714285714283" font-size="12" fill="#7a7f87">Last synced 22m ago</text><line x1="413.0857142857143" y1="289.14285714285717" x2="530.3428571428572" y2="289.14285714285717" stroke="#c4c4c4" stroke-width="1" /><text x="413.0857142857143" y="316" font-size="12" fill="#7a7f87">Hero metric</text><text x="413.0857142857143" y="347.5714285714286" font-weight="700" font-size="18" fill="#7a7f87">—</text><rect x="548.8428571428572" y="163.35714285714286" width="154.77142857142857" height="198.1428571428572" fill="#fafbfc" stroke="#c79a2e" stroke-width="1" rx="4" /><text x="558.3428571428572" y="188.25714285714287" font-weight="600" fill="#2d2d2d">data-pipeline</text><circle cx="566.3428571428572" cy="212.85714285714286" r="6" fill="none" stroke="#6b7078" stroke-width="1.6" stroke-dasharray="7.800000000000001 5.4" stroke-linecap="round" /><text x="582.3428571428572" y="217.52380952380952" font-size="12" fill="#7a7f87">Syncing...</text><text x="558.3428571428572" y="243.71428571428572" font-size="12" fill="#7a7f87">acme/data-pipeline</text><text x="558.3428571428572" y="268.85714285714283" font-size="12" fill="#7a7f87">First sync in progress</text><line x1="558.3428571428572" y1="287.14285714285717" x2="694.1142857142858" y2="287.14285714285717" stroke="#c4c4c4" stroke-width="1" /><text x="558.3428571428572" y="314" font-size="12" fill="#7a7f87">Hero metric</text><text x="558.3428571428572" y="345.5714285714286" font-weight="700" font-size="18" fill="#7a7f87">—</text><rect x="264.5" y="372.50000000000006" width="204.14285714285714" height="106.14285714285717" fill="#fafbfc" stroke="#b5b8bd" stroke-width="1" rx="4" /><text x="274" y="397.40000000000003" font-weight="600" fill="#2d2d2d">Add repository</text><text x="274" y="424.8571428571429" font-size="12" fill="#7a7f87">Connect a repo to this Project</text><g opacity="1"><rect x="274.5" y="437.6428571428572" width="45" height="31" fill="#ffffff" stroke="#505050" stroke-width="1.25" rx="3" /><g transform="translate(290 446.1428571428572) scale(0.875)" color="#2d2d2d"><line x1="8" y1="3" x2="8" y2="13" stroke="currentColor" stroke-width="2" stroke-linecap="round" /><line x1="3" y1="8" x2="13" y2="8" stroke="currentColor" stroke-width="2" stroke-linecap="round" /></g></g></svg>