<svg xmlns="http://www.w3.org/2000/svg" width="965.9428571428571" height="506" viewBox="0 0 965.9428571428571 506" font-family="system-ui, -apple-system, &quot;Segoe UI&quot;, Roboto, sans-serif" font-size="14" id="repository-dashboard"><rect x="0" y="0" width="965.9428571428571" height="506" fill="#ffffff" /><rect x="0.5" y="0.5" width="964.9428571428571" height="505" fill="none" stroke="#505050" stroke-width="1.25" /><line x1="0" y1="36" x2="965.9428571428571" y2="36" stroke="#b0b0b0" stroke-width="1" /><text x="482.97142857142853" y="23.333333333333332" text-anchor="middle" font-size="16" font-weight="600" fill="#2d2d2d">Engineering Insights — core-api</text><line x1="0" y1="88" x2="965.9428571428571" y2="88" stroke="#b0b0b0" stroke-width="1" /><text x="80.57142857142856" y="61" font-weight="700" fill="#2d2d2d">◎ Engineering Insights</text><g opacity="1"><rect x="247.47142857142856" y="46.5" width="160.6" height="31" fill="#ffffff" stroke="#505050" stroke-width="1.25" rx="3" /><text x="327.77142857142854" y="66.66666666666667" text-anchor="middle" font-weight="500" fill="#2d2d2d">Acme Engineering ▾</text></g><text x="416.57142857142856" y="61" fill="#7a7f87">Acme Engineering / core-api / Dashboard</text><g opacity="1"><rect x="705.8714285714286" y="46.5" width="139" height="31" fill="#ffffff" stroke="#505050" stroke-width="1.25" rx="3" /><text x="775.3714285714286" y="66.66666666666667" text-anchor="middle" font-weight="500" fill="#2d2d2d">Sync events (2)</text></g><circle cx="869.3714285714286" cy="62" r="15.5" fill="#e2e5ea" stroke="#b5b8bd" stroke-width="1" /><text x="869.3714285714286" y="66.33333333333333" text-anchor="middle" font-size="13" font-weight="600" fill="#3a3e44">U</text><rect x="16.5" y="104.5" width="239" height="291" fill="none" stroke="#8a8a8a" stroke-width="1" stroke-dasharray="4 3" rx="2" /><text x="28" y="131" fill="#7a7f87">Connector</text><text x="28" y="159" fill="#7a7f87">Settings</text><line x1="28" y1="178" x2="244" y2="178" stroke="#c4c4c4" stroke-width="1" /><text x="28" y="207" font-weight="700" fill="#2d2d2d">Repositories</text><text x="28" y="235" font-weight="700" fill="#3f7cc2">  core-api</text><text x="28" y="263" fill="#7a7f87">  web-client</text><text x="28" y="291" fill="#7a7f87">  data-pipeline</text><g opacity="1"><rect x="28.5" y="304.5" width="151.8" height="31" fill="#3a3a3a" stroke="#505050" stroke-width="1.25" rx="3" /><g transform="translate(44.00000000000001 313) scale(0.875)" color="#ffffff"><line x1="8" y1="3" x2="8" y2="13" stroke="currentColor" stroke-width="2" stroke-linecap="round" /><line x1="3" y1="8" x2="13" y2="8" stroke="currentColor" stroke-width="2" stroke-linecap="round" /></g><text x="64" y="324.6666666666667" font-weight="500" fill="#ffffff">Add Repository</text></g><line x1="28" y1="350" x2="244" y2="350" stroke="#c4c4c4" stroke-width="1" /><text x="28" y="379" fill="#7a7f87">Support</text><g transform="translate(264 104) scale(1.5)" color="#6b7078"><polygon points="8,2 14,6 14,10 8,14 2,10 2,6" fill="none" stroke="currentColor" stroke-width="1.4" stroke-linejoin="round" /><circle cx="8" cy="8" r="2" fill="currentColor" /></g><text x="296" y="123.28571428571428" font-weight="700" font-size="18" fill="#2d2d2d">core-api</text><text x="264" y="150.57142857142858" font-size="12" fill="#7a7f87">acme/core-api</text><rect x="665.3571428571428" y="104.5" width="76.2" height="21" rx="11" fill="#e8f3ec" stroke="#3f8f5c" stroke-width="1" /><path d="M 674.8571428571428 115 L 678.8571428571428 119 L 684.8571428571428 111" fill="none" stroke="#3f8f5c" stroke-width="1.8" stroke-linecap="round" stroke-linejoin="round" /><text x="690.8571428571428" y="119.66666666666667" font-size="12" font-weight="500" fill="#205537">Synced</text><text x="750.0571428571428" y="116.85714285714286" font-size="12" fill="#7a7f87">Last synced 4m ago</text><g opacity="1"><rect x="869.6428571428571" y="104.5" width="79.8" height="31" fill="#3a3a3a" stroke="#505050" stroke-width="1.25" rx="3" /><g transform="translate(885.1428571428571 113) scale(0.875)" color="#ffffff"><path d="M 3 8 L 7 12 L 13 4" fill="none" stroke="currentColor" stroke-width="2" stroke-linecap="round" stroke-linejoin="round" /></g><text x="905.1428571428571" y="124.66666666666667" font-weight="500" fill="#ffffff">Sync</text></g><line x1="264" y1="198.35714285714286" x2="949.9428571428571" y2="198.35714285714286" stroke="#b0b0b0" stroke-width="1" /><text x="278" y="185.52380952380952" font-weight="600" fill="#2d2d2d">Dashboard</text><line x1="268" y1="196.85714285714286" x2="352.8" y2="196.85714285714286" stroke="#3a3a3a" stroke-width="2" /><text x="372.8" y="185.52380952380952" font-weight="400" fill="#8a8f97">Reports</text><text x="453.20000000000005" y="185.52380952380952" font-weight="400" fill="#8a8f97">Settings</text><rect x="264.5" y="207.35714285714286" width="86.88571428571429" height="99.85714285714286" fill="#fafbfc" stroke="#b5b8bd" stroke-width="1" rx="4" /><text x="274" y="232.25714285714287" font-weight="600" fill="#2d2d2d">Metric A</text><text x="274" y="266.14285714285717" font-weight="700" font-size="18" fill="#7a7f87">—</text><text x="274" y="293.4285714285714" font-size="12" fill="#7a7f87">Placeholder</text><rect x="360.3857142857143" y="207.35714285714286" width="86.88571428571429" height="99.85714285714286" fill="#fafbfc" stroke="#b5b8bd" stroke-width="1" rx="4" /><text x="369.8857142857143" y="232.25714285714287" font-weight="600" fill="#2d2d2d">Metric B</text><text x="369.8857142857143" y="266.14285714285717" font-weight="700" font-size="18" fill="#7a7f87">—</text><text x="369.8857142857143" y="293.4285714285714" font-size="12" fill="#7a7f87">Placeholder</text><rect x="456.2714285714286" y="207.35714285714286" width="86.88571428571429" height="99.85714285714286" fill="#fafbfc" stroke="#b5b8bd" stroke-width="1" rx="4" /><text x="465.7714285714286" y="232.25714285714287" font-weight="600" fill="#2d2d2d">Metric C</text><text x="465.7714285714286" y="266.14285714285717" font-weight="700" font-size="18" fill="#7a7f87">—</text><text x="465.7714285714286" y="293.4285714285714" font-size="12" fill="#7a7f87">Placeholder</text><rect x="552.1571428571428" y="207.35714285714286" width="86.88571428571429" height="99.85714285714286" fill="#fafbfc" stroke="#b5b8bd" stroke-width="1" rx="4" /><text x="561.6571428571428" y="232.25714285714287" font-weight="600" fill="#2d2d2d">Metric D</text><text x="561.6571428571428" y="266.14285714285717" font-weight="700" font-size="18" fill="#7a7f87">—</text><text x="561.6571428571428" y="293.4285714285714" font-size="12" fill="#7a7f87">Placeholder</text><text x="264" y="333.7142857142857" font-size="11" font-weight="700" letter-spacing="0.8" fill="#6b7078">PRIMARY VIEW</text><line x1="264" y1="337.7142857142857" x2="621.9428571428571" y2="337.7142857142857" stroke="#c4c4c4" stroke-width="1" opacity="0.6" /><text x="264" y="358.57142857142856" font-size="12" fill="#7a7f87">Visualization placeholder — reads Gold facts (metric_fact)</text><rect x="264.5" y="371.3571428571429" width="356.94285714285706" height="43" fill="none" stroke="#8a8a8a" stroke-width="1" stroke-dasharray="4 3" rx="2" /><text x="276" y="397.8571428571429" fill="#7a7f87">Chart / table goes here</text><text x="629.9428571428571" y="333.7142857142857" font-size="11" font-weight="700" letter-spacing="0.8" fill="#6b7078">SIGNALS</text><line x1="629.9428571428571" y1="337.7142857142857" x2="949.9428571428571" y2="337.7142857142857" stroke="#c4c4c4" stroke-width="1" opacity="0.6" /><rect x="630.4428571428571" y="346.2142857142857" width="319" height="40.14285714285717" fill="none" stroke="#8a8a8a" stroke-width="1" stroke-dasharray="4 3" rx="2" /><text x="641.9428571428571" y="370.57142857142856" font-size="12" fill="#7a7f87">Signal placeholder — report_signal / signal_config (§4.5)</text><text x="629.9428571428571" y="424.8571428571429" font-size="11" font-weight="700" letter-spacing="0.8" fill="#6b7078">SECONDARY</text><line x1="629.9428571428571" y1="428.8571428571429" x2="949.9428571428571" y2="428.8571428571429" stroke="#c4c4c4" stroke-width="1" opacity="0.6" /><rect x="630.4428571428571" y="437.3571428571429" width="319" height="40.14285714285717" fill="none" stroke="#8a8a8a" stroke-width="1" stroke-dasharray="4 3" rx="2" /><text x="641.9428571428571" y="461.7142857142857" font-size="12" fill="#7a7f87">Placeholder card</text></svg>