<svg xmlns="http://www.w3.org/2000/svg" width="944.8" height="614.2857142857142" viewBox="0 0 944.8 614.2857142857142" font-family="system-ui, -apple-system, &quot;Segoe UI&quot;, Roboto, sans-serif" font-size="14" id="repository-reports"><rect x="0" y="0" width="944.8" height="614.2857142857142" fill="#ffffff" /><rect x="0.5" y="0.5" width="943.8" height="613.2857142857142" fill="none" stroke="#505050" stroke-width="1.25" /><line x1="0" y1="36" x2="944.8" y2="36" stroke="#b0b0b0" stroke-width="1" /><text x="472.4" y="23.333333333333332" text-anchor="middle" font-size="16" font-weight="600" fill="#2d2d2d">Engineering Insights — core-api</text><line x1="0" y1="88" x2="944.8" y2="88" stroke="#b0b0b0" stroke-width="1" /><text x="77.19999999999993" y="61" font-weight="700" fill="#2d2d2d">◎ Engineering Insights</text><g opacity="1"><rect x="244.09999999999994" y="46.5" width="160.6" height="31" fill="#ffffff" stroke="#505050" stroke-width="1.25" rx="3" /><text x="324.3999999999999" y="66.66666666666667" text-anchor="middle" font-weight="500" fill="#2d2d2d">Acme Engineering ▾</text></g><text x="413.19999999999993" y="61" fill="#7a7f87">Acme Engineering / core-api / Reports</text><g opacity="1"><rect x="688.0999999999999" y="46.5" width="139" height="31" fill="#ffffff" stroke="#505050" stroke-width="1.25" rx="3" /><text x="757.5999999999999" y="66.66666666666667" text-anchor="middle" font-weight="500" fill="#2d2d2d">Sync events (2)</text></g><circle cx="851.5999999999999" cy="62" r="15.5" fill="#e2e5ea" stroke="#b5b8bd" stroke-width="1" /><text x="851.5999999999999" y="66.33333333333333" text-anchor="middle" font-size="13" font-weight="600" fill="#3a3e44">U</text><rect x="16.5" y="104.5" width="239" height="291" fill="none" stroke="#8a8a8a" stroke-width="1" stroke-dasharray="4 3" rx="2" /><text x="28" y="131" fill="#7a7f87">Connector</text><text x="28" y="159" fill="#7a7f87">Settings</text><line x1="28" y1="178" x2="244" y2="178" stroke="#c4c4c4" stroke-width="1" /><text x="28" y="207" fill="#7a7f87">Repositories</text><text x="28" y="235" font-weight="700" fill="#3f7cc2">  core-api</text><text x="28" y="263" fill="#7a7f87">  web-client</text><text x="28" y="291" fill="#7a7f87">  data-pipeline</text><g opacity="1"><rect x="28.5" y="304.5" width="151.8" height="31" fill="#3a3a3a" stroke="#505050" stroke-width="1.25" rx="3" /><g transform="translate(44.00000000000001 313) scale(0.875)" color="#ffffff"><line x1="8" y1="3" x2="8" y2="13" stroke="currentColor" stroke-width="2" stroke-linecap="round" /><line x1="3" y1="8" x2="13" y2="8" stroke="currentColor" stroke-width="2" stroke-linecap="round" /></g><text x="64" y="324.6666666666667" font-weight="500" fill="#ffffff">Add Repository</text></g><line x1="28" y1="350" x2="244" y2="350" stroke="#c4c4c4" stroke-width="1" /><text x="28" y="379" fill="#7a7f87">Support</text><g transform="translate(264 104) scale(1.5)" color="#6b7078"><polygon points="8,2 14,6 14,10 8,14 2,10 2,6" fill="none" stroke="currentColor" stroke-width="1.4" stroke-linejoin="round" /><circle cx="8" cy="8" r="2" fill="currentColor" /></g><text x="296" y="123.28571428571428" font-weight="700" font-size="18" fill="#2d2d2d">core-api</text><text x="264" y="150.57142857142858" font-size="12" fill="#7a7f87">acme/core-api</text><rect x="644.2142857142857" y="104.5" width="76.2" height="21" rx="11" fill="#e8f3ec" stroke="#3f8f5c" stroke-width="1" /><path d="M 653.7142857142857 115 L 657.7142857142857 119 L 663.7142857142857 111" fill="none" stroke="#3f8f5c" stroke-width="1.8" stroke-linecap="round" stroke-linejoin="round" /><text x="669.7142857142857" y="119.66666666666667" font-size="12" font-weight="500" fill="#205537">Synced</text><text x="728.9142857142857" y="116.85714285714286" font-size="12" fill="#7a7f87">Last synced 4m ago</text><g opacity="1"><rect x="848.5" y="104.5" width="79.8" height="31" fill="#3a3a3a" stroke="#505050" stroke-width="1.25" rx="3" /><g transform="translate(864 113) scale(0.875)" color="#ffffff"><path d="M 3 8 L 7 12 L 13 4" fill="none" stroke="currentColor" stroke-width="2" stroke-linecap="round" stroke-linejoin="round" /></g><text x="884" y="124.66666666666667" font-weight="500" fill="#ffffff">Sync</text></g><line x1="264" y1="198.35714285714286" x2="928.8" y2="198.35714285714286" stroke="#b0b0b0" stroke-width="1" /><text x="278" y="185.52380952380952" font-weight="400" fill="#8a8f97">Dashboard</text><text x="372.8" y="185.52380952380952" font-weight="600" fill="#2d2d2d">Reports</text><line x1="362.8" y1="196.85714285714286" x2="433.20000000000005" y2="196.85714285714286" stroke="#3a3a3a" stroke-width="2" /><text x="453.20000000000005" y="185.52380952380952" font-weight="400" fill="#8a8f97">Settings</text><text x="264" y="226.14285714285714" font-weight="700" font-size="18" fill="#2d2d2d">Reports</text><text x="264" y="253.42857142857144" font-size="12" fill="#7a7f87">Time-bound editorial briefs (async_reports)</text><g opacity="1"><rect x="686.0999999999999" y="207.35714285714286" width="74.2" height="31" fill="#ffffff" stroke="#505050" stroke-width="1.25" rx="3" /><text x="723.1999999999999" y="227.52380952380952" text-anchor="middle" font-weight="500" fill="#2d2d2d">Filter</text></g><g opacity="1"><rect x="769.3" y="207.35714285714286" width="159" height="31" fill="#3a3a3a" stroke="#505050" stroke-width="1.25" rx="3" /><g transform="translate(784.8 215.85714285714286) scale(0.875)" color="#ffffff"><line x1="8" y1="3" x2="8" y2="13" stroke="currentColor" stroke-width="2" stroke-linecap="round" /><line x1="3" y1="8" x2="13" y2="8" stroke="currentColor" stroke-width="2" stroke-linecap="round" /></g><text x="804.8" y="227.52380952380952" font-weight="500" fill="#ffffff">Generate report</text></g><rect x="264.5" y="266.2142857142857" width="213.4" height="161.28571428571433" fill="#fafbfc" stroke="#3f8f5c" stroke-width="1" rx="4" /><text x="274" y="291.1142857142857" font-weight="600" fill="#2d2d2d">Weekly Editorial · 2026-W06</text><rect x="274.5" y="306.2142857142857" width="97.8" height="21" rx="11" fill="#e8f3ec" stroke="#3f8f5c" stroke-width="1" /><path d="M 284 316.7142857142857 L 288 320.7142857142857 L 294 312.7142857142857" fill="none" stroke="#3f8f5c" stroke-width="1.8" stroke-linecap="round" stroke-linejoin="round" /><text x="300" y="321.3809523809524" font-size="12" font-weight="500" fill="#205537">Completed</text><text x="274" y="348.57142857142856" font-size="12" fill="#7a7f87">Feb 2 – Feb 8, 2026</text><text x="274" y="373.7142857142857" font-size="12" fill="#7a7f87">Generated 8m ago · 3 signals</text><g opacity="1"><rect x="354.1" y="386.50000000000006" width="45" height="31" fill="#ffffff" stroke="#505050" stroke-width="1.25" rx="3" /><g transform="translate(369.6 395.00000000000006) scale(0.875)" color="#2d2d2d"><path d="M 8 2 L 9 3.5 L 11 3 L 11.5 5 L 13 6 L 12.5 8 L 13 10 L 11.5 11 L 11 13 L 9 12.5 L 8 14 L 7 12.5 L 5 13 L 4.5 11 L 3 10 L 3.5 8 L 3 6 L 4.5 5 L 5 3 L 7 3.5 Z" fill="none" stroke="currentColor" stroke-width="1.2" stroke-linejoin="round" /><circle cx="8" cy="8" r="2" fill="none" stroke="currentColor" stroke-width="1.2" /></g></g><g opacity="1"><rect x="408.1" y="386.50000000000006" width="59.8" height="31" fill="#ffffff" stroke="#505050" stroke-width="1.25" rx="3" /><text x="438" y="406.66666666666674" text-anchor="middle" font-weight="500" fill="#2d2d2d">Open</text></g><rect x="486.9" y="266.2142857142857" width="213.4" height="161.28571428571433" fill="#fafbfc" stroke="#3f8f5c" stroke-width="1" rx="4" /><text x="496.4" y="291.1142857142857" font-weight="600" fill="#2d2d2d">Weekly Editorial · 2026-W05</text><rect x="496.9" y="306.2142857142857" width="97.8" height="21" rx="11" fill="#e8f3ec" stroke="#3f8f5c" stroke-width="1" /><path d="M 506.4 316.7142857142857 L 510.4 320.7142857142857 L 516.4 312.7142857142857" fill="none" stroke="#3f8f5c" stroke-width="1.8" stroke-linecap="round" stroke-linejoin="round" /><text x="522.4" y="321.3809523809524" font-size="12" font-weight="500" fill="#205537">Completed</text><text x="496.4" y="348.57142857142856" font-size="12" fill="#7a7f87">Jan 26 – Feb 1, 2026</text><text x="496.4" y="373.7142857142857" font-size="12" fill="#7a7f87">Generated 7d ago · 1 signal</text><g opacity="1"><rect x="576.5" y="386.50000000000006" width="45" height="31" fill="#ffffff" stroke="#505050" stroke-width="1.25" rx="3" /><g transform="translate(592 395.00000000000006) scale(0.875)" color="#2d2d2d"><path d="M 8 2 L 9 3.5 L 11 3 L 11.5 5 L 13 6 L 12.5 8 L 13 10 L 11.5 11 L 11 13 L 9 12.5 L 8 14 L 7 12.5 L 5 13 L 4.5 11 L 3 10 L 3.5 8 L 3 6 L 4.5 5 L 5 3 L 7 3.5 Z" fill="none" stroke="currentColor" stroke-width="1.2" stroke-linejoin="round" /><circle cx="8" cy="8" r="2" fill="none" stroke="currentColor" stroke-width="1.2" /></g></g><g opacity="1"><rect x="630.5" y="386.50000000000006" width="59.8" height="31" fill="#ffffff" stroke="#505050" stroke-width="1.25" rx="3" /><text x="660.4" y="406.66666666666674" text-anchor="middle" font-weight="500" fill="#2d2d2d">Open</text></g><rect x="709.3" y="266.2142857142857" width="219" height="161.28571428571433" fill="#fafbfc" stroke="#3f7cc2" stroke-width="1" rx="4" /><text x="718.8" y="291.1142857142857" font-weight="600" fill="#2d2d2d">Weekly Editorial · 2026-W07</text><circle cx="726.8" cy="315.7142857142857" r="6" fill="none" stroke="#6b7078" stroke-width="1.6" stroke-dasharray="7.800000000000001 5.4" stroke-linecap="round" /><text x="742.8" y="320.3809523809524" font-size="12" fill="#7a7f87">Generating...</text><text x="718.8" y="346.57142857142856" font-size="12" fill="#7a7f87">Feb 9 – Feb 15, 2026</text><text x="718.8" y="370.8571428571429" font-size="12" fill="#7a7f87">Computing signals</text><text x="918.8" y="370.8571428571429" text-anchor="end" font-size="12" font-weight="600" fill="#2d2d2d">60 / 100</text><rect x="718.8" y="374.8571428571429" width="200" height="18" fill="#dde0e4" rx="9" /><rect x="718.8" y="374.8571428571429" width="120" height="18" fill="#6b7078" rx="9" /><text x="718.8" y="413.7142857142857" font-size="12" fill="#7a7f87">Stage: signals · polling status</text><rect x="264.5" y="436.50000000000006" width="199" height="161.28571428571428" fill="#fafbfc" stroke="#b0413c" stroke-width="1" rx="4" /><text x="274" y="461.40000000000003" font-weight="600" fill="#2d2d2d">Monthly Rollup · Jan 2026</text><rect x="274.5" y="476.50000000000006" width="76.2" height="21" rx="11" fill="#f5e4e2" stroke="#b0413c" stroke-width="1" /><line x1="284" y1="483.00000000000006" x2="294" y2="491.00000000000006" stroke="#b0413c" stroke-width="1.8" stroke-linecap="round" /><line x1="294" y1="483.00000000000006" x2="284" y2="491.00000000000006" stroke="#b0413c" stroke-width="1.8" stroke-linecap="round" /><text x="300" y="491.66666666666674" font-size="12" font-weight="500" fill="#5c2420">Failed</text><text x="274" y="518.8571428571429" font-size="12" fill="#7a7f87">Jan 1 – Jan 31, 2026</text><text x="274" y="544.0000000000001" font-size="12" fill="#7a7f87">Worker error · retry 2 of 3</text><g opacity="1"><rect x="274.5" y="556.7857142857143" width="103" height="31" fill="#ffffff" stroke="#505050" stroke-width="1.25" rx="3" /><text x="326" y="576.952380952381" text-anchor="middle" font-weight="500" fill="#2d2d2d">View error</text></g><g opacity="1"><rect x="386.5" y="556.7857142857143" width="67" height="31" fill="#3a3a3a" stroke="#505050" stroke-width="1.25" rx="3" /><text x="420" y="576.952380952381" text-anchor="middle" font-weight="500" fill="#ffffff">Retry</text></g><rect x="472.5" y="436.50000000000006" width="197.97142857142856" height="106.14285714285717" fill="#fafbfc" stroke="#b5b8bd" stroke-width="1" rx="4" /><text x="482" y="461.40000000000003" font-weight="600" fill="#2d2d2d">Generate a report</text><text x="482" y="488.8571428571429" font-size="12" fill="#7a7f87">Pick a report type and period</text><g opacity="1"><rect x="482.5" y="501.6428571428572" width="45" height="31" fill="#ffffff" stroke="#505050" stroke-width="1.25" rx="3" /><g transform="translate(498 510.1428571428572) scale(0.875)" color="#2d2d2d"><line x1="8" y1="3" x2="8" y2="13" stroke="currentColor" stroke-width="2" stroke-linecap="round" /><line x1="3" y1="8" x2="13" y2="8" stroke="currentColor" stroke-width="2" stroke-linecap="round" /></g></g></svg>