<svg xmlns="http://www.w3.org/2000/svg" width="1353.142857142857" height="959.1428571428571" viewBox="0 0 1353.142857142857 959.1428571428571" font-family="system-ui, -apple-system, &quot;Segoe UI&quot;, Roboto, sans-serif" font-size="14" id="report-viewer"><rect x="0" y="0" width="1353.142857142857" height="959.1428571428571" fill="#ffffff" /><rect x="0.5" y="0.5" width="1352.142857142857" height="958.1428571428571" fill="none" stroke="#505050" stroke-width="1.25" /><line x1="0" y1="36" x2="1353.142857142857" y2="36" stroke="#b0b0b0" stroke-width="1" /><text x="676.5714285714286" y="23.333333333333332" text-anchor="middle" font-size="16" font-weight="600" fill="#2d2d2d">Engineering Insights — core-api</text><line x1="0" y1="88" x2="1353.142857142857" y2="88" stroke="#b0b0b0" stroke-width="1" /><text x="241.77142857142854" y="61" font-weight="700" fill="#2d2d2d">◎ Engineering Insights</text><g opacity="1"><rect x="408.6714285714286" y="46.5" width="160.6" height="31" fill="#ffffff" stroke="#505050" stroke-width="1.25" rx="3" /><text x="488.9714285714286" y="66.66666666666667" text-anchor="middle" font-weight="500" fill="#2d2d2d">Acme Engineering ▾</text></g><text x="577.7714285714285" y="61" fill="#7a7f87">Acme Engineering / core-api / Reports / 2026-W06</text><g opacity="1"><rect x="931.8714285714285" y="46.5" width="139" height="31" fill="#ffffff" stroke="#505050" stroke-width="1.25" rx="3" /><text x="1001.3714285714285" y="66.66666666666667" text-anchor="middle" font-weight="500" fill="#2d2d2d">Sync events (2)</text></g><circle cx="1095.3714285714286" cy="62" r="15.5" fill="#e2e5ea" stroke="#b5b8bd" stroke-width="1" /><text x="1095.3714285714286" y="66.33333333333333" text-anchor="middle" font-size="13" font-weight="600" fill="#3a3e44">U</text><rect x="16.5" y="104.5" width="239" height="291" fill="none" stroke="#8a8a8a" stroke-width="1" stroke-dasharray="4 3" rx="2" /><text x="28" y="131" fill="#7a7f87">Connector</text><text x="28" y="159" fill="#7a7f87">Settings</text><line x1="28" y1="178" x2="244" y2="178" stroke="#c4c4c4" stroke-width="1" /><text x="28" y="207" fill="#7a7f87">Repositories</text><text x="28" y="235" font-weight="700" fill="#3f7cc2">  core-api</text><text x="28" y="263" fill="#7a7f87">  web-client</text><text x="28" y="291" fill="#7a7f87">  data-pipeline</text><g opacity="1"><rect x="28.5" y="304.5" width="151.8" height="31" fill="#3a3a3a" stroke="#505050" stroke-width="1.25" rx="3" /><g transform="translate(44.00000000000001 313) scale(0.875)" color="#ffffff"><line x1="8" y1="3" x2="8" y2="13" stroke="currentColor" stroke-width="2" stroke-linecap="round" /><line x1="3" y1="8" x2="13" y2="8" stroke="currentColor" stroke-width="2" stroke-linecap="round" /></g><text x="64" y="324.6666666666667" font-weight="500" fill="#ffffff">Add Repository</text></g><line x1="28" y1="350" x2="244" y2="350" stroke="#c4c4c4" stroke-width="1" /><text x="28" y="379" fill="#7a7f87">Support</text><text x="264" y="123.28571428571428" font-weight="700" font-size="18" fill="#2d2d2d">Weekly Editorial Brief</text><rect x="264.5" y="138.21428571428572" width="97.8" height="21" rx="11" fill="#e8f3ec" stroke="#3f8f5c" stroke-width="1" /><path d="M 274 148.71428571428572 L 278 152.71428571428572 L 284 144.71428571428572" fill="none" stroke="#3f8f5c" stroke-width="1.8" stroke-linecap="round" stroke-linejoin="round" /><text x="290" y="153.38095238095238" font-size="12" font-weight="500" fill="#205537">Completed</text><text x="370.8" y="150.57142857142858" font-size="12" fill="#7a7f87">Week of Feb 2, 2026 · 2026-W06</text><text x="563.9428571428572" y="150.57142857142858" font-size="12" fill="#7a7f87">Generated 8m ago</text><g opacity="1"><rect x="1067.2428571428572" y="104.5" width="74.2" height="31" fill="#ffffff" stroke="#505050" stroke-width="1.25" rx="3" /><text x="1104.3428571428572" y="124.66666666666667" text-anchor="middle" font-weight="500" fill="#2d2d2d">‹ Prev</text></g><g opacity="1"><rect x="1150.4428571428573" y="104.5" width="74.2" height="31" fill="#ffffff" stroke="#505050" stroke-width="1.25" rx="3" /><text x="1187.5428571428572" y="124.66666666666667" text-anchor="middle" font-weight="500" fill="#2d2d2d">Next ›</text></g><g opacity="1"><rect x="1233.6428571428573" y="104.5" width="103" height="31" fill="#3a3a3a" stroke="#505050" stroke-width="1.25" rx="3" /><text x="1285.1428571428573" y="124.66666666666667" text-anchor="middle" font-weight="500" fill="#ffffff">Regenerate</text></g><rect x="264.5" y="168.21428571428572" width="105.39999999999999" height="99.85714285714289" fill="#fafbfc" stroke="#b5b8bd" stroke-width="1" rx="4" /><text x="274" y="193.11428571428573" font-weight="600" fill="#2d2d2d">Metric A</text><text x="274" y="227" font-weight="700" font-size="18" fill="#7a7f87">—</text><text x="274" y="254.2857142857143" font-size="12" fill="#7a7f87">vs prev period</text><rect x="378.9" y="168.21428571428572" width="105.39999999999999" height="99.85714285714289" fill="#fafbfc" stroke="#b5b8bd" stroke-width="1" rx="4" /><text x="388.4" y="193.11428571428573" font-weight="600" fill="#2d2d2d">Metric B</text><text x="388.4" y="227" font-weight="700" font-size="18" fill="#7a7f87">—</text><text x="388.4" y="254.2857142857143" font-size="12" fill="#7a7f87">vs prev period</text><rect x="493.29999999999995" y="168.21428571428572" width="105.39999999999999" height="99.85714285714289" fill="#fafbfc" stroke="#b5b8bd" stroke-width="1" rx="4" /><text x="502.79999999999995" y="193.11428571428573" font-weight="600" fill="#2d2d2d">Metric C</text><text x="502.79999999999995" y="227" font-weight="700" font-size="18" fill="#7a7f87">—</text><text x="502.79999999999995" y="254.2857142857143" font-size="12" fill="#7a7f87">vs prev period</text><rect x="607.6999999999999" y="168.21428571428572" width="105.39999999999999" height="99.85714285714289" fill="#fafbfc" stroke="#b5b8bd" stroke-width="1" rx="4" /><text x="617.1999999999999" y="193.11428571428573" font-weight="600" fill="#2d2d2d">Metric D</text><text x="617.1999999999999" y="227" font-weight="700" font-size="18" fill="#7a7f87">—</text><text x="617.1999999999999" y="254.2857142857143" font-size="12" fill="#7a7f87">vs prev period</text><text x="264" y="294.5714285714286" font-size="11" font-weight="700" letter-spacing="0.8" fill="#6b7078">THIS PERIOD'S SIGNALS</text><rect x="1281.5428571428572" y="278.5714285714286" width="55.6" height="18" rx="9" fill="#eef0f3" /><text x="1309.3428571428572" y="291.2380952380953" text-anchor="middle" font-size="11" font-weight="600" fill="#505560">3 fired</text><line x1="264" y1="298.5714285714286" x2="1337.142857142857" y2="298.5714285714286" stroke="#c4c4c4" stroke-width="1" opacity="0.6" /><rect x="264.5" y="307.0714285714286" width="1072.142857142857" height="166.4285714285715" fill="none" stroke="#8a8a8a" stroke-width="1" stroke-dasharray="4 3" rx="2" /><g transform="translate(276 318.5714285714286) scale(1.5)" color="#b0413c"><path d="M 8 2 L 14 13 L 2 13 Z" fill="none" stroke="currentColor" stroke-width="1.4" stroke-linejoin="round" /><line x1="8" y1="6" x2="8" y2="9" stroke="currentColor" stroke-width="1.6" /><circle cx="8" cy="11" r="0.8" fill="currentColor" /></g><text x="308" y="333.5714285714286" font-weight="700" fill="#2d2d2d">Signal headline placeholder</text><rect x="1276.8428571428572" y="319.0714285714286" width="47.8" height="21" rx="11" fill="#eef0f3" stroke="#b0413c" stroke-width="1" /><text x="1286.3428571428572" y="334.2380952380953" font-size="12" fill="#b0413c">High</text><text x="276" y="363.42857142857144" font-size="12" fill="#7a7f87">Narrative placeholder — the templated story for this fired signal, with its magnitude versus the predecessor period.</text><line x1="276" y1="381.7142857142858" x2="1325.142857142857" y2="381.7142857142858" stroke="#c4c4c4" stroke-width="1" /><text x="276" y="408.5714285714286" font-size="12" fill="#7a7f87">Evidence</text><rect x="276.5" y="421.35714285714295" width="1048.142857142857" height="40.14285714285717" fill="none" stroke="#8a8a8a" stroke-width="1" stroke-dasharray="4 3" rx="2" /><text x="288" y="445.7142857142858" font-size="12" fill="#7a7f87">Frozen fact ids + values (report_signal.evidence) — viz placeholder</text><rect x="264.5" y="482.5000000000001" width="1072.142857142857" height="166.42857142857133" fill="none" stroke="#8a8a8a" stroke-width="1" stroke-dasharray="4 3" rx="2" /><g transform="translate(276 494.0000000000001) scale(1.5)" color="#3f7cc2"><path d="M 6 2 L 6 6 L 3 13 Q 3 14 4 14 L 12 14 Q 13 14 13 13 L 10 6 L 10 2 Z" fill="none" stroke="currentColor" stroke-width="1.4" stroke-linejoin="round" /><line x1="5.5" y1="2" x2="10.5" y2="2" stroke="currentColor" stroke-width="1.4" /></g><text x="308" y="509.0000000000001" font-weight="700" fill="#2d2d2d">Signal headline placeholder</text><rect x="1262.442857142857" y="494.5000000000001" width="62.2" height="21" rx="11" fill="#eef0f3" stroke="#c79a2e" stroke-width="1" /><text x="1271.942857142857" y="509.6666666666668" font-size="12" fill="#c79a2e">Medium</text><text x="276" y="538.857142857143" font-size="12" fill="#7a7f87">Narrative placeholder — drift comparison against the previous period.</text><line x1="276" y1="557.1428571428572" x2="1325.142857142857" y2="557.1428571428572" stroke="#c4c4c4" stroke-width="1" /><text x="276" y="584.0000000000001" font-size="12" fill="#7a7f87">Evidence</text><rect x="276.5" y="596.7857142857143" width="1048.142857142857" height="40.14285714285711" fill="none" stroke="#8a8a8a" stroke-width="1" stroke-dasharray="4 3" rx="2" /><text x="288" y="621.1428571428572" font-size="12" fill="#7a7f87">Evidence viz placeholder</text><rect x="264.5" y="657.9285714285714" width="1072.142857142857" height="166.42857142857133" fill="none" stroke="#8a8a8a" stroke-width="1" stroke-dasharray="4 3" rx="2" /><g transform="translate(276 669.4285714285714) scale(1.5)" color="#6b7078"><path d="M 6 2 L 6 6 L 3 13 Q 3 14 4 14 L 12 14 Q 13 14 13 13 L 10 6 L 10 2 Z" fill="none" stroke="currentColor" stroke-width="1.4" stroke-linejoin="round" /><line x1="5.5" y1="2" x2="10.5" y2="2" stroke="currentColor" stroke-width="1.4" /></g><text x="308" y="684.4285714285714" font-weight="700" fill="#2d2d2d">Signal headline placeholder</text><rect x="1284.042857142857" y="669.9285714285714" width="40.6" height="21" rx="11" fill="#eef0f3" stroke="#3f7cc2" stroke-width="1" /><text x="1293.542857142857" y="685.0952380952381" font-size="12" fill="#3f7cc2">Low</text><text x="276" y="714.2857142857143" font-size="12" fill="#7a7f87">Narrative placeholder.</text><line x1="276" y1="732.5714285714286" x2="1325.142857142857" y2="732.5714285714286" stroke="#c4c4c4" stroke-width="1" /><text x="276" y="759.4285714285714" font-size="12" fill="#7a7f87">Evidence</text><rect x="276.5" y="772.2142857142857" width="1048.142857142857" height="40.14285714285711" fill="none" stroke="#8a8a8a" stroke-width="1" stroke-dasharray="4 3" rx="2" /><text x="288" y="796.5714285714286" font-size="12" fill="#7a7f87">Evidence viz placeholder</text><rect x="264.5" y="845.3571428571429" width="1072.142857142857" height="97.28571428571422" fill="none" stroke="#8a8a8a" stroke-width="1" stroke-dasharray="4 3" rx="2" /><g transform="translate(276 856.8571428571429) scale(1.5)" color="#6b7078"><path d="M 4 2 L 11 2 L 13 4 L 13 14 L 4 14 Z" fill="none" stroke="currentColor" stroke-width="1.4" stroke-linejoin="round" /><line x1="6" y1="7" x2="11" y2="7" stroke="currentColor" stroke-width="1" /><line x1="6" y1="10" x2="11" y2="10" stroke="currentColor" stroke-width="1" /></g><text x="276" y="901.7142857142858" font-weight="700" font-size="12" fill="#2d2d2d">Composition is code, signals are config</text><text x="276" y="926.8571428571429" font-size="12" fill="#7a7f87">Which metrics and signals this report_type includes is defined alongside the metric registry (§4.5); each card above is one signal_config rule that crossed its threshold.</text></svg>