<svg xmlns="http://www.w3.org/2000/svg" width="1405.6000000000001" height="721.7142857142858" viewBox="0 0 1405.6000000000001 721.7142857142858" font-family="system-ui, -apple-system, &quot;Segoe UI&quot;, Roboto, sans-serif" font-size="14" id="connectors-management"><rect x="0" y="0" width="1405.6000000000001" height="721.7142857142858" fill="#ffffff" /><rect x="0.5" y="0.5" width="1404.6000000000001" height="720.7142857142858" fill="none" stroke="#505050" stroke-width="1.25" /><line x1="0" y1="36" x2="1405.6000000000001" y2="36" stroke="#b0b0b0" stroke-width="1" /><text x="702.8000000000001" y="23.333333333333332" text-anchor="middle" font-size="16" font-weight="600" fill="#2d2d2d">Connectors</text><line x1="0" y1="121.71428571428572" x2="1405.6000000000001" y2="121.71428571428572" stroke="#b0b0b0" stroke-width="1" /><g transform="translate(408.80000000000007 46) scale(1.5)" color="#3f7cc2"><polygon points="8,2 14,6 14,10 8,14 2,10 2,6" fill="none" stroke="currentColor" stroke-width="1.4" stroke-linejoin="round" /><circle cx="8" cy="8" r="2" fill="currentColor" /></g><text x="440.80000000000007" y="61" font-weight="700" fill="#2d2d2d">The Engineering Editorial</text><g opacity="1"><rect x="629.3000000000001" y="46.5" width="219" height="31" fill="#ffffff" stroke="#8a8a8a" stroke-width="1" rx="2" /><text x="640.8000000000001" y="66.66666666666667" fill="#9aa0a6">Search projects...</text></g><g opacity="1"><rect x="857.3000000000001" y="46.5" width="45" height="31" fill="#ffffff" stroke="#505050" stroke-width="1.25" rx="3" /><g transform="translate(872.8000000000001 55) scale(0.875)" color="#2d2d2d"><path d="M 8 2 L 14 13 L 2 13 Z" fill="none" stroke="currentColor" stroke-width="1.4" stroke-linejoin="round" /><line x1="8" y1="6" x2="8" y2="9" stroke="currentColor" stroke-width="1.6" /><circle cx="8" cy="11" r="0.8" fill="currentColor" /></g></g><g opacity="1"><rect x="911.3000000000001" y="46.5" width="45" height="31" fill="#ffffff" stroke="#505050" stroke-width="1.25" rx="3" /><g transform="translate(926.8000000000001 55) scale(0.875)" color="#2d2d2d"><path d="M 8 2 L 9 3.5 L 11 3 L 11.5 5 L 13 6 L 12.5 8 L 13 10 L 11.5 11 L 11 13 L 9 12.5 L 8 14 L 7 12.5 L 5 13 L 4.5 11 L 3 10 L 3.5 8 L 3 6 L 4.5 5 L 5 3 L 7 3.5 Z" fill="none" stroke="currentColor" stroke-width="1.2" stroke-linejoin="round" /><circle cx="8" cy="8" r="2" fill="none" stroke="currentColor" stroke-width="1.2" /></g></g><circle cx="980.8000000000001" cy="62" r="15.5" fill="#e2e5ea" stroke="#b5b8bd" stroke-width="1" /><text x="980.8000000000001" y="66.33333333333333" text-anchor="middle" font-size="13" font-weight="600" fill="#3a3e44">U</text><text x="656.5142857142857" y="105.28571428571428" font-weight="700" font-size="18" fill="#2d2d2d">Connectors</text><rect x="16.5" y="138.21428571428572" width="239" height="389.2857142857143" fill="none" stroke="#8a8a8a" stroke-width="1" stroke-dasharray="4 3" rx="2" /><text x="28" y="164.71428571428572" font-weight="700" fill="#2d2d2d">Engineering Org</text><text x="28" y="190.57142857142858" font-size="12" fill="#7a7f87">Precision Curator</text><line x1="28" y1="208.85714285714286" x2="244" y2="208.85714285714286" stroke="#c4c4c4" stroke-width="1" /><text x="28" y="237.85714285714286" fill="#7a7f87">All Projects</text><text x="28" y="265.8571428571429" font-weight="700" fill="#2d2d2d">Connectors</text><line x1="28" y1="284.8571428571429" x2="244" y2="284.8571428571429" stroke="#c4c4c4" stroke-width="1" /><text x="28" y="311.7142857142857" font-size="12" fill="#7a7f87">Projects</text><text x="28" y="339.00000000000006" fill="#7a7f87">Project Alpha</text><text x="28" y="367.00000000000006" fill="#7a7f87">Project Beta</text><text x="28" y="395.00000000000006" fill="#7a7f87">Project Gamma</text><g opacity="1"><rect x="28.5" y="408.50000000000006" width="130.2" height="31" fill="#3a3a3a" stroke="#505050" stroke-width="1.25" rx="3" /><g transform="translate(43.99999999999999 417.00000000000006) scale(0.875)" color="#ffffff"><line x1="8" y1="3" x2="8" y2="13" stroke="currentColor" stroke-width="2" stroke-linecap="round" /><line x1="3" y1="8" x2="13" y2="8" stroke="currentColor" stroke-width="2" stroke-linecap="round" /></g><text x="63.99999999999999" y="428.66666666666674" font-weight="500" fill="#ffffff">New Project</text></g><line x1="28" y1="454.00000000000006" x2="244" y2="454.00000000000006" stroke="#c4c4c4" stroke-width="1" /><text x="28" y="483.00000000000006" fill="#7a7f87">Settings</text><text x="28" y="511.00000000000006" fill="#7a7f87">Support</text><rect x="264.5" y="138.21428571428572" width="1124.6000000000001" height="68.14285714285714" fill="none" stroke="#8a8a8a" stroke-width="1" stroke-dasharray="4 3" rx="2" /><text x="276" y="162.57142857142858" font-size="12" fill="#7a7f87">Architecture &amp; Integrations</text><text x="276" y="189.85714285714286" fill="#7a7f87">Manage your organization-wide data sources. Connect tools to unify your engineering metrics and gain holistic visibility into your development lifecycle.</text><text x="264" y="232.85714285714286" font-size="11" font-weight="700" letter-spacing="0.8" fill="#6b7078">ACTIVE INTEGRATIONS</text><rect x="983.3714285714287" y="216.85714285714286" width="78.22857142857143" height="18" rx="9" fill="#eef0f3" /><text x="1022.4857142857145" y="229.52380952380952" text-anchor="middle" font-size="11" font-weight="600" fill="#505560">2 Connected</text><line x1="264" y1="236.85714285714286" x2="1061.6000000000001" y2="236.85714285714286" stroke="#c4c4c4" stroke-width="1" opacity="0.6" /><rect x="264.5" y="245.35714285714286" width="796.6000000000001" height="136.1428571428572" fill="#fafbfc" stroke="#3f8f5c" stroke-width="1.5" rx="4" /><text x="274" y="270.25714285714287" font-weight="600" fill="#2d2d2d">GitHub App</text><rect x="274.5" y="285.3571428571429" width="97.8" height="21" rx="11" fill="#e8f3ec" stroke="#3f8f5c" stroke-width="1" /><path d="M 284 295.8571428571429 L 288 299.8571428571429 L 294 291.8571428571429" fill="none" stroke="#3f8f5c" stroke-width="1.8" stroke-linecap="round" stroke-linejoin="round" /><text x="300" y="300.5238095238096" font-size="12" font-weight="500" fill="#205537">Connected</text><text x="274" y="327.7142857142857" font-size="12" fill="#7a7f87">Last synced 4m ago</text><g opacity="1"><rect x="922.9000000000001" y="340.50000000000006" width="74.2" height="31" fill="#ffffff" stroke="#505050" stroke-width="1.25" rx="3" /><text x="960.0000000000001" y="360.66666666666674" text-anchor="middle" font-weight="500" fill="#2d2d2d">Manage</text></g><g opacity="1"><rect x="1006.1000000000001" y="340.50000000000006" width="45" height="31" fill="#ffffff" stroke="#505050" stroke-width="1.25" rx="3" /><g transform="translate(1021.6000000000001 349.00000000000006) scale(0.875)" color="#2d2d2d"><path d="M 8 2 L 9 3.5 L 11 3 L 11.5 5 L 13 6 L 12.5 8 L 13 10 L 11.5 11 L 11 13 L 9 12.5 L 8 14 L 7 12.5 L 5 13 L 4.5 11 L 3 10 L 3.5 8 L 3 6 L 4.5 5 L 5 3 L 7 3.5 Z" fill="none" stroke="currentColor" stroke-width="1.2" stroke-linejoin="round" /><circle cx="8" cy="8" r="2" fill="none" stroke="currentColor" stroke-width="1.2" /></g></g><rect x="264.5" y="390.50000000000006" width="796.6000000000001" height="136.14285714285717" fill="#fafbfc" stroke="#3f8f5c" stroke-width="1.5" rx="4" /><text x="274" y="415.40000000000003" font-weight="600" fill="#2d2d2d">Jira Software</text><rect x="274.5" y="430.50000000000006" width="97.8" height="21" rx="11" fill="#e8f3ec" stroke="#3f8f5c" stroke-width="1" /><path d="M 284 441.00000000000006 L 288 445.00000000000006 L 294 437.00000000000006" fill="none" stroke="#3f8f5c" stroke-width="1.8" stroke-linecap="round" stroke-linejoin="round" /><text x="300" y="445.66666666666674" font-size="12" font-weight="500" fill="#205537">Connected</text><text x="274" y="472.8571428571429" font-size="12" fill="#7a7f87">Cloud Instance: editorial-main</text><g opacity="1"><rect x="886.5000000000001" y="485.6428571428572" width="81.4" height="31" fill="#ffffff" stroke="#505050" stroke-width="1.25" rx="3" /><text x="927.2000000000002" y="505.8095238095239" text-anchor="middle" font-weight="500" fill="#2d2d2d">Re-auth</text></g><g opacity="1"><rect x="976.9000000000001" y="485.6428571428572" width="74.2" height="31" fill="#ffffff" stroke="#505050" stroke-width="1.25" rx="3" /><text x="1014.0000000000001" y="505.8095238095239" text-anchor="middle" font-weight="500" fill="#2d2d2d">Manage</text></g><g transform="translate(264 538.1428571428572) scale(0.875)" color="#7a7f87"><rect x="4" y="4" width="8" height="8" rx="1" fill="none" stroke="currentColor" stroke-width="1.4" /><line x1="2" y1="6" x2="4" y2="6" stroke="currentColor" stroke-width="1" /><line x1="2" y1="10" x2="4" y2="10" stroke="currentColor" stroke-width="1" /><line x1="12" y1="6" x2="14" y2="6" stroke="currentColor" stroke-width="1" /><line x1="12" y1="10" x2="14" y2="10" stroke="currentColor" stroke-width="1" /><line x1="6" y1="2" x2="6" y2="4" stroke="currentColor" stroke-width="1" /><line x1="10" y1="2" x2="10" y2="4" stroke="currentColor" stroke-width="1" /><line x1="6" y1="12" x2="6" y2="14" stroke="currentColor" stroke-width="1" /><line x1="10" y1="12" x2="10" y2="14" stroke="currentColor" stroke-width="1" /></g><text x="282" y="550.1428571428572" font-size="12" letter-spacing="0.5" fill="#7a7f87">TOTAL API CALLS</text><text x="380.57142857142856" y="550.1428571428572" font-weight="500" fill="#2d2d2d">428.1k</text><g transform="translate(441.7714285714286 538.1428571428572) scale(0.875)" color="#7a7f87"><polygon points="8,2 14,6 14,10 8,14 2,10 2,6" fill="none" stroke="currentColor" stroke-width="1.4" stroke-linejoin="round" /><circle cx="8" cy="8" r="2" fill="currentColor" /></g><text x="459.7714285714286" y="550.1428571428572" font-size="12" letter-spacing="0.5" fill="#7a7f87">DATA LATENCY</text><text x="539.8285714285714" y="550.1428571428572" font-weight="500" fill="#2d2d2d">1.2s</text><text x="1069.6000000000001" y="232.85714285714286" font-size="11" font-weight="700" letter-spacing="0.8" fill="#6b7078">COMING SOON</text><line x1="1069.6000000000001" y1="236.85714285714286" x2="1389.6000000000001" y2="236.85714285714286" stroke="#c4c4c4" stroke-width="1" opacity="0.6" /><rect x="1070.1000000000001" y="245.35714285714286" width="319" height="106.1428571428572" fill="#f0f0f0" stroke="#b8b8b8" stroke-width="1" rx="4" /><text x="1079.6000000000001" y="270.25714285714287" font-weight="600" fill="#8a8f97">Slack</text><g transform="translate(1365.6000000000001 258.8571428571429) scale(0.875)" color="#b8b8b8"><rect x="3.5" y="7" width="9" height="7" rx="1" fill="none" stroke="currentColor" stroke-width="1.4" /><path d="M 5.5 7 L 5.5 5 Q 5.5 2.5 8 2.5 Q 10.5 2.5 10.5 5 L 10.5 7" fill="none" stroke="currentColor" stroke-width="1.4" /></g><text x="1079.6000000000001" y="297.7142857142857" font-size="12" fill="#7a7f87">Notifications &amp; Alerts</text><g opacity="1"><rect x="1080.1000000000001" y="310.50000000000006" width="81.4" height="31" fill="#ffffff" stroke="#505050" stroke-width="1.25" rx="3" /><text x="1120.8000000000002" y="330.66666666666674" text-anchor="middle" font-weight="500" fill="#2d2d2d">Request</text></g><rect x="1070.1000000000001" y="360.50000000000006" width="319" height="91.28571428571433" fill="#f0f0f0" stroke="#b8b8b8" stroke-width="1" rx="4" /><text x="1079.6000000000001" y="385.40000000000003" font-weight="600" fill="#8a8f97">PagerDuty</text><g transform="translate(1365.6000000000001 374.00000000000006) scale(0.875)" color="#b8b8b8"><rect x="3.5" y="7" width="9" height="7" rx="1" fill="none" stroke="currentColor" stroke-width="1.4" /><path d="M 5.5 7 L 5.5 5 Q 5.5 2.5 8 2.5 Q 10.5 2.5 10.5 5 L 10.5 7" fill="none" stroke="currentColor" stroke-width="1.4" /></g><text x="1079.6000000000001" y="412.8571428571429" font-size="12" fill="#7a7f87">Incident Management</text><text x="1079.6000000000001" y="438.00000000000006" font-size="12" fill="#7a7f87">Q4 2024</text><rect x="1070.1000000000001" y="460.7857142857144" width="319" height="108.14285714285717" fill="none" stroke="#8a8a8a" stroke-width="1" stroke-dasharray="4 3" rx="2" /><text x="1081.6000000000001" y="487.2857142857144" font-weight="700" fill="#2d2d2d">Missing a tool?</text><text x="1081.6000000000001" y="513.1428571428572" font-size="12" fill="#7a7f87">Tell us what you'd like to see integrated next in your engineering editorial dashboard.</text><g opacity="1"><rect x="1082.1000000000001" y="525.9285714285716" width="167.8" height="31" fill="#ffffff" stroke="#505050" stroke-width="1.25" rx="3" /><text x="1166.0000000000002" y="546.0952380952382" text-anchor="middle" font-weight="500" fill="#2d2d2d">Suggest Integration</text></g><text x="1069.6000000000001" y="607.4285714285716" font-size="11" font-weight="700" letter-spacing="0.8" fill="#6b7078">ENTERPRISE SECURITY</text><line x1="1069.6000000000001" y1="611.4285714285716" x2="1389.6000000000001" y2="611.4285714285716" stroke="#c4c4c4" stroke-width="1" opacity="0.6" /><g transform="translate(1069.6000000000001 619.4285714285716) scale(1.5)" color="#6b7078"><path d="M 3 14 L 3 5 L 5 5 L 5 3 L 11 3 L 11 5 L 13 5 L 13 14 Z" fill="none" stroke="currentColor" stroke-width="1.4" stroke-linejoin="round" /><line x1="8" y1="5" x2="8" y2="14" stroke="currentColor" stroke-width="1" /></g><text x="1069.6000000000001" y="664.2857142857144" font-size="12" fill="#7a7f87">All connectors utilize OAuth 2.0 or Scoped Access Tokens. No raw credentials are ever stored in our database.</text><text x="1069.6000000000001" y="689.4285714285716" font-size="12" fill="#3f7cc2">Security Documentation →</text></svg>