<svg xmlns="http://www.w3.org/2000/svg" width="1371.6571428571428" height="784" viewBox="0 0 1371.6571428571428 784" font-family="system-ui, -apple-system, &quot;Segoe UI&quot;, Roboto, sans-serif" font-size="14" id="project-detail-quality"><rect x="0" y="0" width="1371.6571428571428" height="784" fill="#ffffff" /><rect x="0.5" y="0.5" width="1370.6571428571428" height="783" fill="none" stroke="#505050" stroke-width="1.25" /><line x1="0" y1="36" x2="1371.6571428571428" y2="36" stroke="#b0b0b0" stroke-width="1" /><text x="685.8285714285714" y="23.333333333333332" text-anchor="middle" font-size="16" font-weight="600" fill="#2d2d2d">Project Beta — Quality</text><line x1="0" y1="146.85714285714286" x2="1371.6571428571428" y2="146.85714285714286" stroke="#b0b0b0" stroke-width="1" /><g transform="translate(391.8285714285714 46) scale(1.5)" color="#3f7cc2"><polygon points="8,2 14,6 14,10 8,14 2,10 2,6" fill="none" stroke="currentColor" stroke-width="1.4" stroke-linejoin="round" /><circle cx="8" cy="8" r="2" fill="currentColor" /></g><text x="423.8285714285714" y="61" font-weight="700" fill="#2d2d2d">The Engineering Editorial</text><g opacity="1"><rect x="612.3285714285714" y="46.5" width="219" height="31" fill="#ffffff" stroke="#8a8a8a" stroke-width="1" rx="2" /><text x="623.8285714285714" y="66.66666666666667" fill="#9aa0a6">Search projects...</text></g><g opacity="1"><rect x="840.3285714285714" y="46.5" width="45" height="31" fill="#ffffff" stroke="#505050" stroke-width="1.25" rx="3" /><g transform="translate(855.8285714285714 55) scale(0.875)" color="#2d2d2d"><path d="M 8 2 L 14 13 L 2 13 Z" fill="none" stroke="currentColor" stroke-width="1.4" stroke-linejoin="round" /><line x1="8" y1="6" x2="8" y2="9" stroke="currentColor" stroke-width="1.6" /><circle cx="8" cy="11" r="0.8" fill="currentColor" /></g></g><g opacity="1"><rect x="894.3285714285714" y="46.5" width="45" height="31" fill="#ffffff" stroke="#505050" stroke-width="1.25" rx="3" /><g transform="translate(909.8285714285714 55) scale(0.875)" color="#2d2d2d"><path d="M 8 2 L 9 3.5 L 11 3 L 11.5 5 L 13 6 L 12.5 8 L 13 10 L 11.5 11 L 11 13 L 9 12.5 L 8 14 L 7 12.5 L 5 13 L 4.5 11 L 3 10 L 3.5 8 L 3 6 L 4.5 5 L 5 3 L 7 3.5 Z" fill="none" stroke="currentColor" stroke-width="1.2" stroke-linejoin="round" /><circle cx="8" cy="8" r="2" fill="none" stroke="currentColor" stroke-width="1.2" /></g></g><circle cx="963.8285714285714" cy="62" r="15.5" fill="#e2e5ea" stroke="#b5b8bd" stroke-width="1" /><text x="963.8285714285714" y="66.33333333333333" text-anchor="middle" font-size="13" font-weight="600" fill="#3a3e44">U</text><text x="304.59999999999997" y="98.85714285714286" font-size="12" fill="#7a7f87">← All Projects</text><text x="304.59999999999997" y="130.42857142857142" font-weight="700" font-size="18" fill="#2d2d2d">Project Beta</text><rect x="533.0999999999999" y="86.5" width="234.20000000000002" height="27" rx="6" ry="6" fill="#eef0f3" stroke="#c4c8ce" stroke-width="1" /><path d="M 689.3999999999999 86.5 L 761.7999999999998 86.5 A 6 6 0 0 1 767.2999999999998 92.5 L 767.2999999999998 107.5 A 6 6 0 0 1 761.7999999999998 113.5 L 689.3999999999999 113.5 Z" fill="#3a3a3a" /><line x1="610.9999999999999" y1="90" x2="610.9999999999999" y2="110" stroke="#b5b8bd" stroke-width="1" /><text x="571.8" y="104.66666666666667" text-anchor="middle" font-size="12" font-weight="500" opacity="1" fill="#3a3e44">Pulse</text><text x="650.1999999999999" y="104.66666666666667" text-anchor="middle" font-size="12" font-weight="500" opacity="1" fill="#3a3e44">Flow</text><text x="728.5999999999999" y="104.66666666666667" text-anchor="middle" font-size="12" font-weight="600" opacity="1" fill="#ffffff">Quality</text><rect x="776.3" y="86.5" width="76.2" height="21" rx="11" fill="#e8f3ec" stroke="#3f8f5c" stroke-width="1" /><path d="M 785.8 97 L 789.8 101 L 795.8 93" fill="none" stroke="#3f8f5c" stroke-width="1.8" stroke-linecap="round" stroke-linejoin="round" /><text x="801.8" y="101.66666666666667" font-size="12" font-weight="500" fill="#205537">Synced</text><text x="861" y="98.85714285714286" font-size="12" fill="#7a7f87">Last updated 4m ago</text><g opacity="1"><rect x="986.7571428571429" y="86.5" width="79.8" height="31" fill="#3a3a3a" stroke="#505050" stroke-width="1.25" rx="3" /><g transform="translate(1002.2571428571429 95) scale(0.875)" color="#ffffff"><path d="M 3 8 L 7 12 L 13 4" fill="none" stroke="currentColor" stroke-width="2" stroke-linecap="round" stroke-linejoin="round" /></g><text x="1022.2571428571429" y="106.66666666666667" font-weight="500" fill="#ffffff">Sync</text></g><rect x="16.5" y="163.35714285714286" width="239" height="389.2857142857142" fill="none" stroke="#8a8a8a" stroke-width="1" stroke-dasharray="4 3" rx="2" /><text x="28" y="189.85714285714286" font-weight="700" fill="#2d2d2d">Engineering Org</text><text x="28" y="215.71428571428572" font-size="12" fill="#7a7f87">Precision Curator</text><line x1="28" y1="234" x2="244" y2="234" stroke="#c4c4c4" stroke-width="1" /><text x="28" y="263" fill="#7a7f87">All Projects</text><text x="28" y="291" fill="#7a7f87">Connectors</text><line x1="28" y1="310" x2="244" y2="310" stroke="#c4c4c4" stroke-width="1" /><text x="28" y="336.85714285714283" font-size="12" fill="#7a7f87">Projects</text><text x="28" y="364.14285714285717" fill="#7a7f87">Project Alpha</text><text x="28" y="392.14285714285717" font-weight="700" fill="#2d2d2d">Project Beta</text><text x="28" y="420.14285714285717" fill="#7a7f87">Project Gamma</text><g opacity="1"><rect x="28.5" y="433.64285714285717" width="130.2" height="31" fill="#3a3a3a" stroke="#505050" stroke-width="1.25" rx="3" /><g transform="translate(43.99999999999999 442.14285714285717) scale(0.875)" color="#ffffff"><line x1="8" y1="3" x2="8" y2="13" stroke="currentColor" stroke-width="2" stroke-linecap="round" /><line x1="3" y1="8" x2="13" y2="8" stroke="currentColor" stroke-width="2" stroke-linecap="round" /></g><text x="63.99999999999999" y="453.80952380952385" font-weight="500" fill="#ffffff">New Project</text></g><line x1="28" y1="479.14285714285717" x2="244" y2="479.14285714285717" stroke="#c4c4c4" stroke-width="1" /><text x="28" y="508.14285714285717" fill="#7a7f87">Settings</text><text x="28" y="536.1428571428571" fill="#7a7f87">Support</text><rect x="264.5" y="163.35714285714286" width="112.60000000000001" height="99.85714285714286" fill="#fafbfc" stroke="#b5b8bd" stroke-width="1" rx="4" /><text x="274" y="188.25714285714287" font-weight="600" fill="#2d2d2d">Total Bounces</text><text x="274" y="222.14285714285714" font-weight="700" font-size="18" fill="#b0413c">24</text><text x="274" y="249.42857142857144" font-size="12" fill="#b0413c">▲ 12%</text><rect x="386.1" y="163.35714285714286" width="219" height="100.71428571428572" fill="#fafbfc" stroke="#b5b8bd" stroke-width="1" rx="4" /><text x="395.6" y="188.25714285714287" font-weight="600" fill="#2d2d2d">Functional Gaps</text><text x="395.6" y="222.14285714285714" font-weight="700" font-size="18" fill="#2d2d2d">12</text><rect x="395.6" y="236.57142857142858" width="200" height="18" fill="#dde0e4" rx="9" /><rect x="395.6" y="236.57142857142858" width="100" height="18" fill="#6b7078" rx="9" /><rect x="614.1" y="163.35714285714286" width="219" height="100.71428571428572" fill="#fafbfc" stroke="#b5b8bd" stroke-width="1" rx="4" /><text x="623.6" y="188.25714285714287" font-weight="600" fill="#2d2d2d">Implementation Gaps</text><text x="623.6" y="222.14285714285714" font-weight="700" font-size="18" fill="#2d2d2d">8</text><rect x="623.6" y="236.57142857142858" width="200" height="18" fill="#dde0e4" rx="9" /><rect x="623.6" y="236.57142857142858" width="66" height="18" fill="#6b7078" rx="9" /><rect x="842.1" y="163.35714285714286" width="111.57142857142857" height="99.85714285714286" fill="#fafbfc" stroke="#b5b8bd" stroke-width="1" rx="4" /><text x="851.6" y="188.25714285714287" font-weight="600" fill="#2d2d2d">Avg Fix Time</text><text x="851.6" y="222.14285714285714" font-weight="700" font-size="18" fill="#3f7cc2">3.2h</text><text x="851.6" y="249.42857142857144" font-size="12" fill="#7a7f87">Efficient Range</text><text x="264" y="290.57142857142856" font-size="11" font-weight="700" letter-spacing="0.8" fill="#6b7078">QA CYCLES TIMELINE</text><line x1="264" y1="294.57142857142856" x2="1355.6571428571428" y2="294.57142857142856" stroke="#c4c4c4" stroke-width="1" opacity="0.6" /><text x="264" y="315.4285714285714" font-size="12" fill="#7a7f87">Bounce frequency tracking across release sprints</text><rect x="264.5" y="328.2142857142857" width="219" height="119" fill="#fafbfc" stroke="#3f7cc2" stroke-width="1" stroke-dasharray="4 3" rx="3" /><path d="M 276 395.7142857142857 L 325 375.7142857142857 L 374 383.7142857142857 L 423 355.7142857142857 L 472 363.7142857142857" fill="none" stroke="#3f7cc2" stroke-width="1.6" stroke-linecap="round" stroke-linejoin="round" /><circle cx="276" cy="395.7142857142857" r="2" fill="#3f7cc2" /><circle cx="325" cy="375.7142857142857" r="2" fill="#3f7cc2" /><circle cx="374" cy="383.7142857142857" r="2" fill="#3f7cc2" /><circle cx="423" cy="355.7142857142857" r="2" fill="#3f7cc2" /><circle cx="472" cy="363.7142857142857" r="2" fill="#3f7cc2" /><text x="374" y="439.7142857142857" text-anchor="middle" font-size="12" fill="#7a7f87">Bounces — Sprint 24 to Current</text><text x="264" y="485.7142857142857" font-size="11" font-weight="700" letter-spacing="0.8" fill="#6b7078">DEFECT CLUSTER ANALYSIS</text><line x1="264" y1="489.7142857142857" x2="1355.6571428571428" y2="489.7142857142857" stroke="#c4c4c4" stroke-width="1" opacity="0.6" /><text x="264" y="510.57142857142856" font-weight="700" font-size="12" fill="#7a7f87">Ticket ID</text><text x="392" y="510.57142857142856" font-weight="700" font-size="12" fill="#7a7f87">Gap Type</text><text x="560" y="510.57142857142856" font-weight="700" font-size="12" fill="#7a7f87">Clusters</text><text x="728" y="510.57142857142856" font-weight="700" font-size="12" fill="#7a7f87">Fix Time</text><text x="836" y="510.57142857142856" font-weight="700" font-size="12" fill="#7a7f87">Jaccard</text><line x1="264" y1="528.8571428571429" x2="1355.6571428571428" y2="528.8571428571429" stroke="#c4c4c4" stroke-width="1" /><text x="264" y="557.8571428571429" fill="#2d2d2d">ENG-8402</text><text x="392" y="557.8571428571429" fill="#2d2d2d">Functional</text><text x="560" y="555.7142857142858" font-size="12" fill="#7a7f87">API, AUTH</text><text x="728" y="555.7142857142858" font-size="12" fill="#7a7f87">4.5h</text><text x="836" y="557.8571428571429" font-weight="700" fill="#2d2d2d">0.85</text><text x="264" y="585.8571428571429" fill="#2d2d2d">ENG-8511</text><text x="392" y="585.8571428571429" fill="#2d2d2d">Implementation</text><text x="560" y="583.7142857142858" font-size="12" fill="#7a7f87">UI</text><text x="728" y="583.7142857142858" font-size="12" fill="#7a7f87">1.2h</text><text x="836" y="585.8571428571429" fill="#7a7f87">0.35</text><text x="264" y="613.8571428571429" fill="#2d2d2d">ENG-8499</text><text x="392" y="613.8571428571429" fill="#2d2d2d">Functional</text><text x="560" y="611.7142857142858" font-size="12" fill="#7a7f87">DB, LOG</text><text x="728" y="611.7142857142858" font-size="12" fill="#7a7f87">2.8h</text><text x="836" y="613.8571428571429" font-weight="700" fill="#2d2d2d">0.78</text><text x="264" y="641.8571428571429" fill="#2d2d2d">ENG-8388</text><text x="392" y="641.8571428571429" fill="#2d2d2d">Implementation</text><text x="560" y="639.7142857142858" font-size="12" fill="#7a7f87">SVC</text><text x="728" y="639.7142857142858" font-size="12" fill="#7a7f87">5.1h</text><text x="836" y="641.8571428571429" font-weight="700" fill="#2d2d2d">0.90</text><rect x="264.5" y="667.3571428571429" width="1090.6571428571428" height="100.14285714285711" fill="none" stroke="#8a8a8a" stroke-width="1" stroke-dasharray="4 3" rx="2" /><g transform="translate(276 678.8571428571429) scale(1.5)" color="#6b7078"><path d="M 6 2 L 6 6 L 3 13 Q 3 14 4 14 L 12 14 Q 13 14 13 13 L 10 6 L 10 2 Z" fill="none" stroke="currentColor" stroke-width="1.4" stroke-linejoin="round" /><line x1="5.5" y1="2" x2="10.5" y2="2" stroke="currentColor" stroke-width="1.4" /></g><text x="276" y="725.8571428571429" font-weight="700" fill="#2d2d2d">Insight: Regression Hotspot</text><text x="276" y="751.7142857142858" font-size="12" fill="#7a7f87">Functional gaps are trending 15% higher in the AUTH cluster over the last 3 QA cycles. Recommend a deep-dive audit of session persistence logic before the Sprint 28 release.</text></svg>