<svg xmlns="http://www.w3.org/2000/svg" width="1192.8" height="580" viewBox="0 0 1192.8 580" font-family="system-ui, -apple-system, &quot;Segoe UI&quot;, Roboto, sans-serif" font-size="14" id="project-detail-pulse"><rect x="0" y="0" width="1192.8" height="580" fill="#ffffff" /><rect x="0.5" y="0.5" width="1191.8" height="579" fill="none" stroke="#505050" stroke-width="1.25" /><line x1="0" y1="36" x2="1192.8" y2="36" stroke="#b0b0b0" stroke-width="1" /><text x="596.4" y="23.333333333333332" text-anchor="middle" font-size="16" font-weight="600" fill="#2d2d2d">Project Beta — Pulse</text><line x1="0" y1="146.85714285714286" x2="1192.8" y2="146.85714285714286" stroke="#b0b0b0" stroke-width="1" /><g transform="translate(302.4 46) scale(1.5)" color="#3f7cc2"><polygon points="8,2 14,6 14,10 8,14 2,10 2,6" fill="none" stroke="currentColor" stroke-width="1.4" stroke-linejoin="round" /><circle cx="8" cy="8" r="2" fill="currentColor" /></g><text x="334.4" y="61" font-weight="700" fill="#2d2d2d">The Engineering Editorial</text><g opacity="1"><rect x="522.9" y="46.5" width="219" height="31" fill="#ffffff" stroke="#8a8a8a" stroke-width="1" rx="2" /><text x="534.4" y="66.66666666666667" fill="#9aa0a6">Search projects...</text></g><g opacity="1"><rect x="750.9" y="46.5" width="45" height="31" fill="#ffffff" stroke="#505050" stroke-width="1.25" rx="3" /><g transform="translate(766.4 55) scale(0.875)" color="#2d2d2d"><path d="M 8 2 L 14 13 L 2 13 Z" fill="none" stroke="currentColor" stroke-width="1.4" stroke-linejoin="round" /><line x1="8" y1="6" x2="8" y2="9" stroke="currentColor" stroke-width="1.6" /><circle cx="8" cy="11" r="0.8" fill="currentColor" /></g></g><g opacity="1"><rect x="804.9" y="46.5" width="45" height="31" fill="#ffffff" stroke="#505050" stroke-width="1.25" rx="3" /><g transform="translate(820.4 55) scale(0.875)" color="#2d2d2d"><path d="M 8 2 L 9 3.5 L 11 3 L 11.5 5 L 13 6 L 12.5 8 L 13 10 L 11.5 11 L 11 13 L 9 12.5 L 8 14 L 7 12.5 L 5 13 L 4.5 11 L 3 10 L 3.5 8 L 3 6 L 4.5 5 L 5 3 L 7 3.5 Z" fill="none" stroke="currentColor" stroke-width="1.2" stroke-linejoin="round" /><circle cx="8" cy="8" r="2" fill="none" stroke="currentColor" stroke-width="1.2" /></g></g><circle cx="874.4" cy="62" r="15.5" fill="#e2e5ea" stroke="#b5b8bd" stroke-width="1" /><text x="874.4" y="66.33333333333333" text-anchor="middle" font-size="13" font-weight="600" fill="#3a3e44">U</text><text x="215.17142857142852" y="98.85714285714286" font-size="12" fill="#7a7f87">← All Projects</text><text x="215.17142857142852" y="130.42857142857142" font-weight="700" font-size="18" fill="#2d2d2d">Project Beta</text><rect x="443.6714285714285" y="86.5" width="234.20000000000002" height="27" rx="6" ry="6" fill="#eef0f3" stroke="#c4c8ce" stroke-width="1" /><path d="M 449.1714285714285 86.5 L 521.5714285714286 86.5 L 521.5714285714286 113.5 L 449.1714285714285 113.5 A 6 6 0 0 1 443.6714285714285 107.5 L 443.6714285714285 92.5 A 6 6 0 0 1 449.1714285714285 86.5 Z" fill="#3a3a3a" /><line x1="599.9714285714285" y1="90" x2="599.9714285714285" y2="110" stroke="#b5b8bd" stroke-width="1" /><text x="482.3714285714285" y="104.66666666666667" text-anchor="middle" font-size="12" font-weight="600" opacity="1" fill="#ffffff">Pulse</text><text x="560.7714285714286" y="104.66666666666667" text-anchor="middle" font-size="12" font-weight="500" opacity="1" fill="#3a3e44">Flow</text><text x="639.1714285714286" y="104.66666666666667" text-anchor="middle" font-size="12" font-weight="500" opacity="1" fill="#3a3e44">Quality</text><rect x="686.8714285714285" y="86.5" width="76.2" height="21" rx="11" fill="#e8f3ec" stroke="#3f8f5c" stroke-width="1" /><path d="M 696.3714285714285 97 L 700.3714285714285 101 L 706.3714285714285 93" fill="none" stroke="#3f8f5c" stroke-width="1.8" stroke-linecap="round" stroke-linejoin="round" /><text x="712.3714285714285" y="101.66666666666667" font-size="12" font-weight="500" fill="#205537">Synced</text><text x="771.5714285714286" y="98.85714285714286" font-size="12" fill="#7a7f87">Last updated 4m ago</text><g opacity="1"><rect x="897.3285714285714" y="86.5" width="79.8" height="31" fill="#3a3a3a" stroke="#505050" stroke-width="1.25" rx="3" /><g transform="translate(912.8285714285714 95) scale(0.875)" color="#ffffff"><path d="M 3 8 L 7 12 L 13 4" fill="none" stroke="currentColor" stroke-width="2" stroke-linecap="round" stroke-linejoin="round" /></g><text x="932.8285714285714" y="106.66666666666667" font-weight="500" fill="#ffffff">Sync</text></g><rect x="16.5" y="163.35714285714286" width="239" height="389.2857142857142" fill="none" stroke="#8a8a8a" stroke-width="1" stroke-dasharray="4 3" rx="2" /><text x="28" y="189.85714285714286" font-weight="700" fill="#2d2d2d">Engineering Org</text><text x="28" y="215.71428571428572" font-size="12" fill="#7a7f87">Precision Curator</text><line x1="28" y1="234" x2="244" y2="234" stroke="#c4c4c4" stroke-width="1" /><text x="28" y="263" fill="#7a7f87">All Projects</text><text x="28" y="291" fill="#7a7f87">Connectors</text><line x1="28" y1="310" x2="244" y2="310" stroke="#c4c4c4" stroke-width="1" /><text x="28" y="336.85714285714283" font-size="12" fill="#7a7f87">Projects</text><text x="28" y="364.14285714285717" fill="#7a7f87">Project Alpha</text><text x="28" y="392.14285714285717" font-weight="700" fill="#2d2d2d">Project Beta</text><text x="28" y="420.14285714285717" fill="#7a7f87">Project Gamma</text><g opacity="1"><rect x="28.5" y="433.64285714285717" width="130.2" height="31" fill="#3a3a3a" stroke="#505050" stroke-width="1.25" rx="3" /><g transform="translate(43.99999999999999 442.14285714285717) scale(0.875)" color="#ffffff"><line x1="8" y1="3" x2="8" y2="13" stroke="currentColor" stroke-width="2" stroke-linecap="round" /><line x1="3" y1="8" x2="13" y2="8" stroke="currentColor" stroke-width="2" stroke-linecap="round" /></g><text x="63.99999999999999" y="453.80952380952385" font-weight="500" fill="#ffffff">New Project</text></g><line x1="28" y1="479.14285714285717" x2="244" y2="479.14285714285717" stroke="#c4c4c4" stroke-width="1" /><text x="28" y="508.14285714285717" fill="#7a7f87">Settings</text><text x="28" y="536.1428571428571" fill="#7a7f87">Support</text><rect x="264.5" y="163.35714285714286" width="136.25714285714287" height="125.00000000000003" fill="#fafbfc" stroke="#b5b8bd" stroke-width="1" rx="4" /><text x="274" y="188.25714285714287" font-weight="600" fill="#2d2d2d">Cycle Time</text><text x="274" y="222.14285714285714" font-weight="700" font-size="18" fill="#b0413c">3.4d</text><text x="274" y="249.42857142857144" font-size="12" fill="#b0413c">▲ 12%</text><text x="274" y="274.57142857142856" font-size="12" fill="#7a7f87">Average per feature</text><rect x="409.75714285714287" y="163.35714285714286" width="136.25714285714287" height="125.00000000000003" fill="#fafbfc" stroke="#b5b8bd" stroke-width="1" rx="4" /><text x="419.25714285714287" y="188.25714285714287" font-weight="600" fill="#2d2d2d">QA Bounce</text><text x="419.25714285714287" y="222.14285714285714" font-weight="700" font-size="18" fill="#2d2d2d">18.2%</text><text x="419.25714285714287" y="249.42857142857144" font-size="12" fill="#3f7cc2">▼ 4%</text><text x="419.25714285714287" y="274.57142857142856" font-size="12" fill="#7a7f87">Rejection frequency</text><rect x="555.0142857142857" y="163.35714285714286" width="93.05714285714286" height="125.00000000000003" fill="#fafbfc" stroke="#b5b8bd" stroke-width="1" rx="4" /><text x="564.5142857142857" y="188.25714285714287" font-weight="600" fill="#2d2d2d">PRs Merged</text><text x="564.5142857142857" y="222.14285714285714" font-weight="700" font-size="18" fill="#2d2d2d">142</text><text x="564.5142857142857" y="249.42857142857144" font-size="12" fill="#3f7cc2">▲ 24%</text><text x="564.5142857142857" y="274.57142857142856" font-size="12" fill="#7a7f87">Last 30 days</text><rect x="657.0714285714286" y="163.35714285714286" width="123.91428571428571" height="125.00000000000003" fill="#fafbfc" stroke="#b5b8bd" stroke-width="1" rx="4" /><text x="666.5714285714286" y="188.25714285714287" font-weight="600" fill="#2d2d2d">Rework Rate</text><text x="666.5714285714286" y="222.14285714285714" font-weight="700" font-size="18" fill="#2d2d2d">8.4%</text><text x="666.5714285714286" y="249.42857142857144" font-size="12" fill="#3f7cc2">▼ 2%</text><text x="666.5714285714286" y="274.57142857142856" font-size="12" fill="#7a7f87">Code churn metric</text><text x="264" y="314.8571428571429" font-size="11" font-weight="700" letter-spacing="0.8" fill="#6b7078">SIGNAL FEED</text><rect x="500.1142857142857" y="298.8571428571429" width="83.88571428571429" height="18" rx="9" fill="#eef0f3" /><text x="542.0571428571428" y="311.5238095238096" text-anchor="middle" font-size="11" font-weight="600" fill="#505560">Live Updates</text><line x1="264" y1="318.8571428571429" x2="584" y2="318.8571428571429" stroke="#c4c4c4" stroke-width="1" opacity="0.6" /><circle cx="270" cy="337.8571428571429" r="2" fill="#8a8f97" /><text x="280" y="340.8571428571429" fill="#2d2d2d">Deployment Blocked — 2m ago</text><path d="M 572 331.8571428571429 L 577 336.8571428571429 L 572 341.8571428571429" fill="none" stroke="#8a9099" stroke-width="1.4" stroke-linecap="round" stroke-linejoin="round" /><circle cx="270" cy="363.8571428571429" r="2" fill="#8a8f97" /><text x="280" y="366.8571428571429" fill="#2d2d2d">PR #402 Merged — 45m ago</text><circle cx="270" cy="389.8571428571429" r="2" fill="#8a8f97" /><text x="280" y="392.8571428571429" fill="#2d2d2d">QA Spike Detected — 2h ago</text><text x="592" y="314.8571428571429" font-size="11" font-weight="700" letter-spacing="0.8" fill="#6b7078">CYCLE TIME TRENDS</text><line x1="592" y1="318.8571428571429" x2="1176.8" y2="318.8571428571429" stroke="#c4c4c4" stroke-width="1" opacity="0.6" /><text x="592" y="339.7142857142857" font-size="12" fill="#7a7f87">Actual vs Targeted, last 6 months</text><rect x="592.5" y="352.50000000000006" width="219" height="119" fill="#fafbfc" stroke="#3f7cc2" stroke-width="1" stroke-dasharray="4 3" rx="3" /><rect x="616.25" y="412.00000000000006" width="24.5" height="32" fill="#3f7cc2" opacity="0.75" /><rect x="665.25" y="384.00000000000006" width="24.5" height="60" fill="#3f7cc2" opacity="0.75" /><rect x="714.25" y="400.00000000000006" width="24.5" height="44" fill="#3f7cc2" opacity="0.75" /><rect x="763.25" y="372.00000000000006" width="24.5" height="72" fill="#3f7cc2" opacity="0.75" /><text x="702" y="464.00000000000006" text-anchor="middle" font-size="12" fill="#7a7f87">Cycle Time Trends (Oct–Mar)</text><text x="592" y="495.00000000000006" fill="#2d2d2d">Standard Dev</text><text x="792" y="495.00000000000006" text-anchor="end" fill="#2d2d2d">0.8d</text><text x="800" y="495.00000000000006" fill="#2d2d2d">P90 Goal</text><text x="1000" y="495.00000000000006" text-anchor="end" fill="#2d2d2d">4.5d</text><g opacity="1"><rect x="1008.5" y="480.50000000000006" width="167.8" height="31" fill="#ffffff" stroke="#505050" stroke-width="1.25" rx="3" /><text x="1092.4" y="500.66666666666674" text-anchor="middle" font-weight="500" fill="#2d2d2d">View Full Breakdown</text></g><g opacity="1"><rect x="1131.3" y="532.5" width="45" height="31" fill="#3a3a3a" stroke="#505050" stroke-width="1.25" rx="3" /><g transform="translate(1146.8 541) scale(0.875)" color="#ffffff"><line x1="8" y1="3" x2="8" y2="13" stroke="currentColor" stroke-width="2" stroke-linecap="round" /><line x1="3" y1="8" x2="13" y2="8" stroke="currentColor" stroke-width="2" stroke-linecap="round" /></g></g></svg>