<svg xmlns="http://www.w3.org/2000/svg" width="963.6" height="739.4285714285714" viewBox="0 0 963.6 739.4285714285714" font-family="system-ui, -apple-system, &quot;Segoe UI&quot;, Roboto, sans-serif" font-size="14" id="project-detail-flow"><rect x="0" y="0" width="963.6" height="739.4285714285714" fill="#ffffff" /><rect x="0.5" y="0.5" width="962.6" height="738.4285714285714" fill="none" stroke="#505050" stroke-width="1.25" /><line x1="0" y1="36" x2="963.6" y2="36" stroke="#b0b0b0" stroke-width="1" /><text x="481.8" y="23.333333333333332" text-anchor="middle" font-size="16" font-weight="600" fill="#2d2d2d">Project Beta — Flow</text><line x1="0" y1="146.85714285714286" x2="963.6" y2="146.85714285714286" stroke="#b0b0b0" stroke-width="1" /><g transform="translate(187.8 46) scale(1.5)" color="#3f7cc2"><polygon points="8,2 14,6 14,10 8,14 2,10 2,6" fill="none" stroke="currentColor" stroke-width="1.4" stroke-linejoin="round" /><circle cx="8" cy="8" r="2" fill="currentColor" /></g><text x="219.8" y="61" font-weight="700" fill="#2d2d2d">The Engineering Editorial</text><g opacity="1"><rect x="408.3" y="46.5" width="219" height="31" fill="#ffffff" stroke="#8a8a8a" stroke-width="1" rx="2" /><text x="419.8" y="66.66666666666667" fill="#9aa0a6">Search projects...</text></g><g opacity="1"><rect x="636.3" y="46.5" width="45" height="31" fill="#ffffff" stroke="#505050" stroke-width="1.25" rx="3" /><g transform="translate(651.8 55) scale(0.875)" color="#2d2d2d"><path d="M 8 2 L 14 13 L 2 13 Z" fill="none" stroke="currentColor" stroke-width="1.4" stroke-linejoin="round" /><line x1="8" y1="6" x2="8" y2="9" stroke="currentColor" stroke-width="1.6" /><circle cx="8" cy="11" r="0.8" fill="currentColor" /></g></g><g opacity="1"><rect x="690.3" y="46.5" width="45" height="31" fill="#ffffff" stroke="#505050" stroke-width="1.25" rx="3" /><g transform="translate(705.8 55) scale(0.875)" color="#2d2d2d"><path d="M 8 2 L 9 3.5 L 11 3 L 11.5 5 L 13 6 L 12.5 8 L 13 10 L 11.5 11 L 11 13 L 9 12.5 L 8 14 L 7 12.5 L 5 13 L 4.5 11 L 3 10 L 3.5 8 L 3 6 L 4.5 5 L 5 3 L 7 3.5 Z" fill="none" stroke="currentColor" stroke-width="1.2" stroke-linejoin="round" /><circle cx="8" cy="8" r="2" fill="none" stroke="currentColor" stroke-width="1.2" /></g></g><circle cx="759.8" cy="62" r="15.5" fill="#e2e5ea" stroke="#b5b8bd" stroke-width="1" /><text x="759.8" y="66.33333333333333" text-anchor="middle" font-size="13" font-weight="600" fill="#3a3e44">U</text><text x="100.57142857142856" y="98.85714285714286" font-size="12" fill="#7a7f87">← All Projects</text><text x="100.57142857142856" y="130.42857142857142" font-weight="700" font-size="18" fill="#2d2d2d">Project Beta</text><rect x="329.07142857142856" y="86.5" width="234.20000000000002" height="27" rx="6" ry="6" fill="#eef0f3" stroke="#c4c8ce" stroke-width="1" /><rect x="406.97142857142853" y="86.5" width="78.4" height="27" fill="#3a3a3a" /><text x="367.77142857142854" y="104.66666666666667" text-anchor="middle" font-size="12" font-weight="500" opacity="1" fill="#3a3e44">Pulse</text><text x="446.1714285714285" y="104.66666666666667" text-anchor="middle" font-size="12" font-weight="600" opacity="1" fill="#ffffff">Flow</text><text x="524.5714285714286" y="104.66666666666667" text-anchor="middle" font-size="12" font-weight="500" opacity="1" fill="#3a3e44">Quality</text><rect x="572.2714285714286" y="86.5" width="76.2" height="21" rx="11" fill="#e8f3ec" stroke="#3f8f5c" stroke-width="1" /><path d="M 581.7714285714286 97 L 585.7714285714286 101 L 591.7714285714286 93" fill="none" stroke="#3f8f5c" stroke-width="1.8" stroke-linecap="round" stroke-linejoin="round" /><text x="597.7714285714286" y="101.66666666666667" font-size="12" font-weight="500" fill="#205537">Synced</text><text x="656.9714285714286" y="98.85714285714286" font-size="12" fill="#7a7f87">Last updated 4m ago</text><g opacity="1"><rect x="782.7285714285715" y="86.5" width="79.8" height="31" fill="#3a3a3a" stroke="#505050" stroke-width="1.25" rx="3" /><g transform="translate(798.2285714285715 95) scale(0.875)" color="#ffffff"><path d="M 3 8 L 7 12 L 13 4" fill="none" stroke="currentColor" stroke-width="2" stroke-linecap="round" stroke-linejoin="round" /></g><text x="818.2285714285715" y="106.66666666666667" font-weight="500" fill="#ffffff">Sync</text></g><rect x="16.5" y="163.35714285714286" width="239" height="389.2857142857142" fill="none" stroke="#8a8a8a" stroke-width="1" stroke-dasharray="4 3" rx="2" /><text x="28" y="189.85714285714286" font-weight="700" fill="#2d2d2d">Engineering Org</text><text x="28" y="215.71428571428572" font-size="12" fill="#7a7f87">Precision Curator</text><line x1="28" y1="234" x2="244" y2="234" stroke="#c4c4c4" stroke-width="1" /><text x="28" y="263" fill="#7a7f87">All Projects</text><text x="28" y="291" fill="#7a7f87">Connectors</text><line x1="28" y1="310" x2="244" y2="310" stroke="#c4c4c4" stroke-width="1" /><text x="28" y="336.85714285714283" font-size="12" fill="#7a7f87">Projects</text><text x="28" y="364.14285714285717" fill="#7a7f87">Project Alpha</text><text x="28" y="392.14285714285717" font-weight="700" fill="#2d2d2d">Project Beta</text><text x="28" y="420.14285714285717" fill="#7a7f87">Project Gamma</text><g opacity="1"><rect x="28.5" y="433.64285714285717" width="130.2" height="31" fill="#3a3a3a" stroke="#505050" stroke-width="1.25" rx="3" /><g transform="translate(43.99999999999999 442.14285714285717) scale(0.875)" color="#ffffff"><line x1="8" y1="3" x2="8" y2="13" stroke="currentColor" stroke-width="2" stroke-linecap="round" /><line x1="3" y1="8" x2="13" y2="8" stroke="currentColor" stroke-width="2" stroke-linecap="round" /></g><text x="63.99999999999999" y="453.80952380952385" font-weight="500" fill="#ffffff">New Project</text></g><line x1="28" y1="479.14285714285717" x2="244" y2="479.14285714285717" stroke="#c4c4c4" stroke-width="1" /><text x="28" y="508.14285714285717" fill="#7a7f87">Settings</text><text x="28" y="536.1428571428571" fill="#7a7f87">Support</text><rect x="264.5" y="163.35714285714286" width="105.4" height="99.85714285714286" fill="#fafbfc" stroke="#b5b8bd" stroke-width="1" rx="4" /><text x="274" y="188.25714285714287" font-weight="600" fill="#2d2d2d">Avg Dev Time</text><text x="274" y="222.14285714285714" font-weight="700" font-size="18" fill="#2d2d2d">1.2d</text><text x="274" y="249.42857142857144" font-size="12" fill="#3f8f5c">▼ 12%</text><rect x="378.9" y="163.35714285714286" width="98.2" height="99.85714285714286" fill="#fafbfc" stroke="#b5b8bd" stroke-width="1" rx="4" /><text x="388.4" y="188.25714285714287" font-weight="600" fill="#2d2d2d">Review Time</text><text x="388.4" y="222.14285714285714" font-weight="700" font-size="18" fill="#2d2d2d">0.8d</text><text x="388.4" y="249.42857142857144" font-size="12" fill="#7a7f87">Stable</text><rect x="486.09999999999997" y="163.35714285714286" width="69.4" height="99.85714285714286" fill="#fafbfc" stroke="#b5b8bd" stroke-width="1" rx="4" /><text x="495.59999999999997" y="188.25714285714287" font-weight="600" fill="#2d2d2d">QA Time</text><text x="495.59999999999997" y="222.14285714285714" font-weight="700" font-size="18" fill="#b0413c">1.4d</text><text x="495.59999999999997" y="249.42857142857144" font-size="12" fill="#b0413c">▲ 4%</text><rect x="564.5" y="163.35714285714286" width="83.8" height="99.85714285714286" fill="#fafbfc" stroke="#b5b8bd" stroke-width="1" rx="4" /><text x="574" y="188.25714285714287" font-weight="600" fill="#2d2d2d">Blocked %</text><text x="574" y="222.14285714285714" font-weight="700" font-size="18" fill="#2d2d2d">5.2%</text><text x="574" y="249.42857142857144" font-size="12" fill="#3f8f5c">▼ 0.4%</text><text x="264" y="289.7142857142857" font-size="11" font-weight="700" letter-spacing="0.8" fill="#6b7078">PHASE BREAKDOWN</text><rect x="863.7142857142858" y="273.7142857142857" width="83.88571428571429" height="18" rx="9" fill="#eef0f3" /><text x="905.657142857143" y="286.3809523809524" text-anchor="middle" font-size="11" font-weight="600" fill="#505560">Last 30 days</text><line x1="264" y1="293.7142857142857" x2="947.6" y2="293.7142857142857" stroke="#c4c4c4" stroke-width="1" opacity="0.6" /><text x="264" y="313.7142857142857" font-size="12" fill="#7a7f87">Dev</text><text x="864" y="313.7142857142857" text-anchor="end" font-size="12" font-weight="600" fill="#2d2d2d">45 / 100</text><rect x="264" y="317.7142857142857" width="600" height="18" fill="#dde0e4" rx="9" /><rect x="264" y="317.7142857142857" width="270" height="18" fill="#6b7078" rx="9" /><text x="264" y="355.7142857142857" font-size="12" fill="#7a7f87">Review</text><text x="864" y="355.7142857142857" text-anchor="end" font-size="12" font-weight="600" fill="#2d2d2d">25 / 100</text><rect x="264" y="359.7142857142857" width="600" height="18" fill="#dde0e4" rx="9" /><rect x="264" y="359.7142857142857" width="150" height="18" fill="#6b7078" rx="9" /><text x="264" y="397.7142857142857" font-size="12" fill="#7a7f87">QA</text><text x="864" y="397.7142857142857" text-anchor="end" font-size="12" font-weight="600" fill="#2d2d2d">20 / 100</text><rect x="264" y="401.7142857142857" width="600" height="18" fill="#dde0e4" rx="9" /><rect x="264" y="401.7142857142857" width="120" height="18" fill="#6b7078" rx="9" /><text x="264" y="439.7142857142857" font-size="12" fill="#7a7f87">Blocked</text><text x="864" y="439.7142857142857" text-anchor="end" font-size="12" font-weight="600" fill="#2d2d2d">10 / 100</text><rect x="264" y="443.7142857142857" width="600" height="18" fill="#dde0e4" rx="9" /><rect x="264" y="443.7142857142857" width="60" height="18" fill="#b0413c" rx="9" /><text x="264" y="499.7142857142857" font-size="11" font-weight="700" letter-spacing="0.8" fill="#6b7078">RECENT TRANSITIONS</text><line x1="264" y1="503.7142857142857" x2="639.6" y2="503.7142857142857" stroke="#c4c4c4" stroke-width="1" opacity="0.6" /><circle cx="270" cy="522.7142857142858" r="2" fill="#8a8f97" /><text x="280" y="525.7142857142858" fill="#2d2d2d">Alex Rivero — PR-429 · Dev → Review · 2m ago</text><circle cx="270" cy="548.7142857142858" r="2" fill="#8a8f97" /><text x="280" y="551.7142857142858" fill="#2d2d2d">Sarah Chen — FIX-902 · Review → QA · 18m ago</text><circle cx="270" cy="574.7142857142858" r="2" fill="#8a8f97" /><text x="280" y="577.7142857142858" fill="#2d2d2d">Marcus Thorne — FEAT-112 · QA → Blocked · 1h ago</text><path d="M 627.6 568.7142857142858 L 632.6 573.7142857142858 L 627.6 578.7142857142858" fill="none" stroke="#8a9099" stroke-width="1.4" stroke-linecap="round" stroke-linejoin="round" /><circle cx="270" cy="600.7142857142858" r="2" fill="#8a8f97" /><text x="280" y="603.7142857142858" fill="#2d2d2d">Elena Rodriguez — DEP-88 · Dev → Review · 4h ago</text><rect x="648.1" y="482.2142857142857" width="299" height="98.14285714285717" fill="none" stroke="#8a8a8a" stroke-width="1" stroke-dasharray="4 3" rx="2" /><text x="659.6" y="508.7142857142857" font-weight="700" fill="#3f7cc2">Editorial Insight</text><text x="659.6" y="534.5714285714287" font-size="12" fill="#7a7f87">Project Beta's flow indicates a 15% reduction in Review-to-QA friction compared to the previous sprint cycle.</text><rect x="660.1" y="547.3571428571429" width="127" height="21" rx="11" fill="#eef0f3" stroke="#3f7cc2" stroke-width="1" /><text x="669.6" y="562.5238095238095" font-size="12" fill="#3f7cc2">Efficiency Gain</text><text x="647.6" y="606.8571428571429" font-size="11" font-weight="700" letter-spacing="0.8" fill="#6b7078">POTENTIAL BOTTLENECKS</text><line x1="647.6" y1="610.8571428571429" x2="947.6" y2="610.8571428571429" stroke="#c4c4c4" stroke-width="1" opacity="0.6" /><g transform="translate(647.6 618.8571428571429) scale(1.5)" color="#b0413c"><path d="M 8 2 L 14 13 L 2 13 Z" fill="none" stroke="currentColor" stroke-width="1.4" stroke-linejoin="round" /><line x1="8" y1="6" x2="8" y2="9" stroke="currentColor" stroke-width="1.6" /><circle cx="8" cy="11" r="0.8" fill="currentColor" /></g><text x="679.6" y="631.7142857142858" font-weight="700" font-size="12" fill="#2d2d2d">QA Queue Depth</text><text x="679.6" y="656.8571428571429" font-size="12" fill="#7a7f87">4 items pending &gt; 48h</text><g transform="translate(647.6 669.1428571428572) scale(1.5)" color="#6b7078"><path d="M 6 2 L 6 6 L 3 13 Q 3 14 4 14 L 12 14 Q 13 14 13 13 L 10 6 L 10 2 Z" fill="none" stroke="currentColor" stroke-width="1.4" stroke-linejoin="round" /><line x1="5.5" y1="2" x2="10.5" y2="2" stroke="currentColor" stroke-width="1.4" /></g><text x="679.6" y="682.0000000000001" font-weight="700" font-size="12" fill="#2d2d2d">Review Overload</text><text x="679.6" y="707.1428571428572" font-size="12" fill="#7a7f87">2 devs handling 80% reviews</text></svg>