<svg xmlns="http://www.w3.org/2000/svg" width="1351.2" height="592.5714285714286" viewBox="0 0 1351.2 592.5714285714286" font-family="system-ui, -apple-system, &quot;Segoe UI&quot;, Roboto, sans-serif" font-size="14" id="projects-dashboard"><rect x="0" y="0" width="1351.2" height="592.5714285714286" fill="#ffffff" /><rect x="0.5" y="0.5" width="1350.2" height="591.5714285714286" fill="none" stroke="#505050" stroke-width="1.25" /><line x1="0" y1="36" x2="1351.2" y2="36" stroke="#b0b0b0" stroke-width="1" /><text x="675.6" y="23.333333333333332" text-anchor="middle" font-size="16" font-weight="600" fill="#2d2d2d">Dashboard</text><line x1="0" y1="128" x2="1351.2" y2="128" stroke="#b0b0b0" stroke-width="1" /><g transform="translate(381.6 46) scale(1.5)" color="#3f7cc2"><polygon points="8,2 14,6 14,10 8,14 2,10 2,6" fill="none" stroke="currentColor" stroke-width="1.4" stroke-linejoin="round" /><circle cx="8" cy="8" r="2" fill="currentColor" /></g><text x="413.6" y="61" font-weight="700" fill="#2d2d2d">The Engineering Editorial</text><g opacity="1"><rect x="602.1" y="46.5" width="219" height="31" fill="#ffffff" stroke="#8a8a8a" stroke-width="1" rx="2" /><text x="613.6" y="66.66666666666667" fill="#9aa0a6">Search projects...</text></g><g opacity="1"><rect x="830.1" y="46.5" width="45" height="31" fill="#ffffff" stroke="#505050" stroke-width="1.25" rx="3" /><g transform="translate(845.6 55) scale(0.875)" color="#2d2d2d"><path d="M 8 2 L 14 13 L 2 13 Z" fill="none" stroke="currentColor" stroke-width="1.4" stroke-linejoin="round" /><line x1="8" y1="6" x2="8" y2="9" stroke="currentColor" stroke-width="1.6" /><circle cx="8" cy="11" r="0.8" fill="currentColor" /></g></g><g opacity="1"><rect x="884.1" y="46.5" width="45" height="31" fill="#ffffff" stroke="#505050" stroke-width="1.25" rx="3" /><g transform="translate(899.6 55) scale(0.875)" color="#2d2d2d"><path d="M 8 2 L 9 3.5 L 11 3 L 11.5 5 L 13 6 L 12.5 8 L 13 10 L 11.5 11 L 11 13 L 9 12.5 L 8 14 L 7 12.5 L 5 13 L 4.5 11 L 3 10 L 3.5 8 L 3 6 L 4.5 5 L 5 3 L 7 3.5 Z" fill="none" stroke="currentColor" stroke-width="1.2" stroke-linejoin="round" /><circle cx="8" cy="8" r="2" fill="none" stroke="currentColor" stroke-width="1.2" /></g></g><circle cx="953.6" cy="62" r="15.5" fill="#e2e5ea" stroke="#b5b8bd" stroke-width="1" /><text x="953.6" y="66.33333333333333" text-anchor="middle" font-size="13" font-weight="600" fill="#3a3e44">U</text><text x="407.25714285714287" y="105.28571428571428" font-weight="700" font-size="18" fill="#2d2d2d">All Projects</text><rect x="526.8428571428572" y="86.5" width="277.4" height="27" rx="6" ry="6" fill="#eef0f3" stroke="#c4c8ce" stroke-width="1" /><path d="M 532.3428571428572 86.5 L 619.1428571428571 86.5 L 619.1428571428571 113.5 L 532.3428571428572 113.5 A 6 6 0 0 1 526.8428571428572 107.5 L 526.8428571428572 92.5 A 6 6 0 0 1 532.3428571428572 86.5 Z" fill="#3a3a3a" /><line x1="711.9428571428572" y1="90" x2="711.9428571428572" y2="110" stroke="#b5b8bd" stroke-width="1" /><text x="572.7428571428571" y="104.66666666666667" text-anchor="middle" font-size="12" font-weight="600" opacity="1" fill="#ffffff">Dashboard</text><text x="665.5428571428571" y="104.66666666666667" text-anchor="middle" font-size="12" font-weight="500" opacity="1" fill="#3a3e44">Team</text><text x="758.3428571428572" y="104.66666666666667" text-anchor="middle" font-size="12" font-weight="500" opacity="1" fill="#3a3e44">Insights</text><g opacity="1"><rect x="813.2428571428571" y="86.5" width="130.2" height="31" fill="#3a3a3a" stroke="#505050" stroke-width="1.25" rx="3" /><g transform="translate(828.7428571428571 95) scale(0.875)" color="#ffffff"><line x1="8" y1="3" x2="8" y2="13" stroke="currentColor" stroke-width="2" stroke-linecap="round" /><line x1="3" y1="8" x2="13" y2="8" stroke="currentColor" stroke-width="2" stroke-linecap="round" /></g><text x="848.7428571428571" y="106.66666666666667" font-weight="500" fill="#ffffff">New Project</text></g><rect x="16.5" y="144.5" width="239" height="389.2857142857142" fill="none" stroke="#8a8a8a" stroke-width="1" stroke-dasharray="4 3" rx="2" /><text x="28" y="171" font-weight="700" fill="#2d2d2d">Engineering Org</text><text x="28" y="196.85714285714286" font-size="12" fill="#7a7f87">Precision Curator</text><line x1="28" y1="215.14285714285714" x2="244" y2="215.14285714285714" stroke="#c4c4c4" stroke-width="1" /><text x="28" y="244.14285714285714" font-weight="700" fill="#2d2d2d">All Projects</text><text x="28" y="272.1428571428571" fill="#7a7f87">Connectors</text><line x1="28" y1="291.1428571428571" x2="244" y2="291.1428571428571" stroke="#c4c4c4" stroke-width="1" /><text x="28" y="317.99999999999994" font-size="12" fill="#7a7f87">Projects</text><text x="28" y="345.2857142857143" fill="#7a7f87">Project Alpha</text><text x="28" y="373.2857142857143" fill="#7a7f87">Project Beta</text><text x="28" y="401.2857142857143" fill="#7a7f87">Project Gamma</text><g opacity="1"><rect x="28.5" y="414.7857142857143" width="130.2" height="31" fill="#3a3a3a" stroke="#505050" stroke-width="1.25" rx="3" /><g transform="translate(43.99999999999999 423.2857142857143) scale(0.875)" color="#ffffff"><line x1="8" y1="3" x2="8" y2="13" stroke="currentColor" stroke-width="2" stroke-linecap="round" /><line x1="3" y1="8" x2="13" y2="8" stroke="currentColor" stroke-width="2" stroke-linecap="round" /></g><text x="63.99999999999999" y="434.95238095238096" font-weight="500" fill="#ffffff">New Project</text></g><line x1="28" y1="460.2857142857143" x2="244" y2="460.2857142857143" stroke="#c4c4c4" stroke-width="1" /><text x="28" y="489.2857142857143" fill="#7a7f87">Settings</text><text x="28" y="517.2857142857142" fill="#7a7f87">Support</text><rect x="264.5" y="144.5" width="1070.2" height="311.5714285714286" fill="none" stroke="#8a8a8a" stroke-width="1" stroke-dasharray="4 3" rx="2" /><text x="276" y="168.85714285714286" font-size="12" fill="#7a7f87">Portfolio Overview</text><g opacity="1"><rect x="1248.5" y="156.5" width="74.2" height="31" fill="#ffffff" stroke="#505050" stroke-width="1.25" rx="3" /><text x="1285.6" y="176.66666666666666" text-anchor="middle" font-weight="500" fill="#2d2d2d">Filter</text></g><rect x="276.5" y="196.5" width="245.45714285714286" height="119.28571428571428" fill="#fafbfc" stroke="#3f8f5c" stroke-width="1" rx="4" /><text x="286" y="221.4" font-weight="600" fill="#2d2d2d">Project Alpha</text><text x="286" y="248.85714285714286" font-weight="700" font-size="12" fill="#3f8f5c">Active</text><text x="286" y="273.99999999999994" font-size="12" fill="#7a7f87">Next-gen API Infrastructure</text><text x="286" y="301.2857142857143" font-size="12" letter-spacing="0.5" fill="#7a7f87">CYCLE TIME</text><text x="353.7142857142857" y="301.2857142857143" font-weight="500" fill="#2d2d2d">3.2 days</text><text x="429.3142857142857" y="301.2857142857143" font-size="12" letter-spacing="0.5" fill="#7a7f87">QA BOUNCE</text><text x="490.85714285714283" y="301.2857142857143" font-weight="500" fill="#2d2d2d">12%</text><rect x="530.9571428571428" y="196.5" width="245.45714285714286" height="119.28571428571428" fill="#fafbfc" stroke="#c79a2e" stroke-width="1" rx="4" /><text x="540.4571428571428" y="221.4" font-weight="600" fill="#2d2d2d">Project Beta</text><text x="540.4571428571428" y="248.85714285714286" font-weight="700" font-size="12" fill="#c79a2e">Reviewing</text><text x="540.4571428571428" y="273.99999999999994" font-size="12" fill="#7a7f87">Mobile Client Revamp</text><text x="540.4571428571428" y="301.2857142857143" font-size="12" letter-spacing="0.5" fill="#7a7f87">CYCLE TIME</text><text x="608.1714285714285" y="301.2857142857143" font-weight="500" fill="#2d2d2d">5.8 days</text><text x="683.7714285714285" y="301.2857142857143" font-size="12" letter-spacing="0.5" fill="#7a7f87">QA BOUNCE</text><text x="745.3142857142856" y="301.2857142857143" font-weight="500" fill="#c79a2e">24%</text><rect x="785.4142857142856" y="196.5" width="238.25714285714287" height="119.28571428571428" fill="#fafbfc" stroke="#3f8f5c" stroke-width="1" rx="4" /><text x="794.9142857142856" y="221.4" font-weight="600" fill="#2d2d2d">Project Gamma</text><text x="794.9142857142856" y="248.85714285714286" font-weight="700" font-size="12" fill="#3f8f5c">Active</text><text x="794.9142857142856" y="273.99999999999994" font-size="12" fill="#7a7f87">Data Pipeline V3</text><text x="794.9142857142856" y="301.2857142857143" font-size="12" letter-spacing="0.5" fill="#7a7f87">CYCLE TIME</text><text x="862.6285714285713" y="301.2857142857143" font-weight="500" fill="#2d2d2d">2.1 days</text><text x="938.2285714285713" y="301.2857142857143" font-size="12" letter-spacing="0.5" fill="#7a7f87">QA BOUNCE</text><text x="999.7714285714284" y="301.2857142857143" font-weight="500" fill="#2d2d2d">4%</text><rect x="276.5" y="324.7857142857143" width="245.45714285714286" height="119.28571428571433" fill="#fafbfc" stroke="#3f8f5c" stroke-width="1" rx="4" /><text x="286" y="349.68571428571425" font-weight="600" fill="#2d2d2d">Project Delta</text><text x="286" y="377.1428571428571" font-weight="700" font-size="12" fill="#3f8f5c">Active</text><text x="286" y="402.2857142857143" font-size="12" fill="#7a7f87">Analytics Engine Upgrade</text><text x="286" y="429.5714285714286" font-size="12" letter-spacing="0.5" fill="#7a7f87">CYCLE TIME</text><text x="353.7142857142857" y="429.5714285714286" font-weight="500" fill="#2d2d2d">4.4 days</text><text x="429.3142857142857" y="429.5714285714286" font-size="12" letter-spacing="0.5" fill="#7a7f87">QA BOUNCE</text><text x="490.85714285714283" y="429.5714285714286" font-weight="500" fill="#c79a2e">18%</text><rect x="530.9571428571428" y="324.7857142857143" width="235" height="106.14285714285717" fill="#fafbfc" stroke="#b5b8bd" stroke-width="1" rx="4" /><text x="540.4571428571428" y="349.68571428571425" font-weight="600" fill="#2d2d2d">Add project</text><text x="540.4571428571428" y="377.1428571428571" font-size="12" fill="#7a7f87">Initialize new engineering workflow</text><g opacity="1"><rect x="540.9571428571428" y="389.92857142857144" width="45" height="31" fill="#ffffff" stroke="#505050" stroke-width="1.25" rx="3" /><g transform="translate(556.4571428571428 398.42857142857144) scale(0.875)" color="#2d2d2d"><line x1="8" y1="3" x2="8" y2="13" stroke="currentColor" stroke-width="2" stroke-linecap="round" /><line x1="3" y1="8" x2="13" y2="8" stroke="currentColor" stroke-width="2" stroke-linecap="round" /></g></g><rect x="264.5" y="465.0714285714286" width="1070.2" height="111.00000000000006" fill="none" stroke="#8a8a8a" stroke-width="1" stroke-dasharray="4 3" rx="2" /><g transform="translate(276 476.5714285714286) scale(1.5)" color="#3f7cc2"><path d="M 6 2 L 6 6 L 3 13 Q 3 14 4 14 L 12 14 Q 13 14 13 13 L 10 6 L 10 2 Z" fill="none" stroke="currentColor" stroke-width="1.4" stroke-linejoin="round" /><line x1="5.5" y1="2" x2="10.5" y2="2" stroke="currentColor" stroke-width="1.4" /></g><text x="308" y="491.5714285714286" font-weight="700" fill="#2d2d2d">Fleet Velocity Insight</text><text x="308" y="519.5714285714287" fill="#7a7f87">Average cycle time across all projects has decreased by 14.2% in the last sprint. The most significant improvement was seen in Project Gamma.</text><g opacity="1"><rect x="276.5" y="533.0714285714287" width="110.2" height="31" fill="#ffffff" stroke="#505050" stroke-width="1.25" rx="3" /><text x="331.6" y="553.2380952380953" text-anchor="middle" font-weight="500" fill="#2d2d2d">View Report</text></g></svg>